<svg width="40" height="40" viewBox="0 0 40 40" fill="none" xmlns="http://www.w3.org/2000/svg">
    <path fill-rule="evenodd" clip-rule="evenodd" d="M11.666 23.8273C11.666 23.51 11.7949 23.2062 12.0232 22.9857L12.8807 22.1575C13.2071 21.8423 13.3908 21.4075 13.3895 20.9537L13.3816 18.3262C13.3705 14.6501 16.3476 11.6641 20.0238 11.6641C23.6922 11.6641 26.666 14.6379 26.666 18.3063L26.666 20.9737C26.666 21.4157 26.8416 21.8397 27.1542 22.1522L27.9875 22.9856C28.2085 23.2066 28.3327 23.5063 28.3327 23.8189C28.3327 24.4698 27.805 24.9974 27.1542 24.9974H23.3327C23.3327 26.8383 21.8403 28.3307 19.9993 28.3307C18.1584 28.3307 16.666 26.8383 16.666 24.9974H12.8361C12.1899 24.9974 11.666 24.4735 11.666 23.8273ZM18.3327 24.9974C18.3327 25.9179 19.0789 26.6641 19.9993 26.6641C20.9198 26.6641 21.666 25.9179 21.666 24.9974H18.3327ZM24.9993 20.9737C24.9993 21.8578 25.3505 22.7056 25.9757 23.3307L14.0648 23.3307C14.7012 22.7024 15.0588 21.8441 15.0561 20.9487L15.0482 18.3212C15.04 15.5675 17.27 13.3307 20.0238 13.3307C22.7717 13.3307 24.9993 15.5584 24.9993 18.3063L24.9993 20.9737Z" fill="#6F767E"/>
</svg>
