<svg width="40" height="40" viewBox="0 0 40 40" fill="none" xmlns="http://www.w3.org/2000/svg">
    <path fill-rule="evenodd" clip-rule="evenodd" d="M18.4421 21.5529C17.4671 20.5779 16.7321 19.4863 16.2438 18.3788C16.1413 18.1446 16.2013 17.8704 16.3821 17.6896L17.0646 17.0071C17.6238 16.4479 17.6238 15.6571 17.1354 15.1687L16.1579 14.1912C15.5071 13.5404 14.4521 13.5404 13.8013 14.1912L13.2579 14.7337C12.6404 15.3512 12.3829 16.2421 12.5496 17.1254C12.9613 19.3029 14.2263 21.6871 16.2671 23.7279C18.3079 25.7687 20.6921 27.0337 22.8696 27.4454C23.7529 27.6121 24.6438 27.3546 25.2613 26.7371L25.8038 26.1946C26.4546 25.5437 26.4546 24.4887 25.8038 23.8379L24.8263 22.8604C24.3379 22.3721 23.5463 22.3721 23.0588 22.8604L22.3063 23.6137C22.1254 23.7946 21.8513 23.8554 21.6171 23.7521C20.5096 23.2629 19.4171 22.5271 18.4421 21.5529Z" stroke="#6F767E" stroke-width="1.5" stroke-linecap="round" stroke-linejoin="round"/>
    <path d="M25.0996 15.8359H23.8496V14.5859" stroke="#6F767E" stroke-width="1.5" stroke-linecap="round" stroke-linejoin="round"/>
    <path d="M26.5224 13.4763C27.8241 14.7781 27.8241 16.8886 26.5224 18.1904C25.2206 19.4921 23.1101 19.4921 21.8083 18.1904C20.5066 16.8886 20.5066 14.7781 21.8083 13.4763C23.1101 12.1746 25.2206 12.1746 26.5224 13.4763" stroke="#6F767E" stroke-width="1.5" stroke-linecap="round" stroke-linejoin="round"/>
</svg>
