<svg width="20" height="20" viewBox="0 0 20 20" fill="none" xmlns="http://www.w3.org/2000/svg">
<path d="M9.99869 1.67969C6.31703 1.67969 3.33203 4.66469 3.33203 8.34635C3.33203 11.2355 5.20537 14.523 7.73286 17.253C7.81453 17.3405 7.8812 17.4088 7.96703 17.4872C8.68286 18.128 9.42452 18.3547 9.99869 18.3463C10.0062 18.3463 10.0187 18.3463 10.0245 18.3463C10.6229 18.3463 11.4662 18.0772 12.2645 17.2788C14.6895 14.8538 16.6653 11.278 16.6653 8.34635C16.6653 4.66469 13.6803 1.67969 9.99869 1.67969ZM9.99869 5.84635C11.3795 5.84635 12.4987 6.96552 12.4987 8.34635C12.4987 9.72719 11.3795 10.8464 9.99869 10.8464C8.61785 10.8464 7.49869 9.72719 7.49869 8.34635C7.49869 6.96552 8.61785 5.84635 9.99869 5.84635Z" fill="#141416"/>
</svg>
