<svg width="100" height="101" viewBox="0 0 100 101" fill="none" xmlns="http://www.w3.org/2000/svg">
<path d="M63.473 47.8645H43.1632C42.6483 47.8647 42.1475 47.6955 41.7381 47.3831C41.3287 47.0707 41.0333 46.6324 40.8976 46.1356C40.7618 45.6389 40.793 45.1112 40.9866 44.634C41.1802 44.1568 41.5252 43.7564 41.9687 43.4946C50.8177 38.2658 55.4141 32.1664 56.0203 24.8479C56.2318 22.3081 58.494 20.2793 61.0619 20.3129C63.6823 20.3548 66.1371 21.4051 67.9757 23.2707C69.8157 25.1381 70.8298 27.6109 70.8307 30.2334V31.0233C70.8307 37.4296 68.9332 41.5143 65.4321 46.8109C65.2181 47.1347 64.9271 47.4005 64.5852 47.5843C64.2434 47.7682 63.8612 47.8645 63.473 47.8645Z" fill="#E1E3E4"/>
<path d="M88.3628 50.5236C88.3628 46.4667 85.0623 43.166 81.0052 43.166H43.1626C42.7422 43.166 42.3294 43.2788 41.9676 43.4929C39.3112 45.0635 36.629 46.3565 34.4738 47.3957C33.7221 47.7581 33.0121 48.1004 32.3663 48.4232C31.9763 48.6183 31.6483 48.9181 31.419 49.289C31.1898 49.66 31.0684 50.0875 31.0684 50.5236V80.5798C31.0684 81.0159 31.1898 81.4434 31.419 81.8143C31.6483 82.1853 31.9763 82.4851 32.3663 82.6802C41.8544 87.4235 49.7413 87.9971 58.9384 87.9971C60.3626 87.9971 61.8192 87.9833 63.317 87.9692C64.9736 87.9536 66.6862 87.9374 68.4819 87.9374H75.9052C79.9621 87.9374 83.2627 84.6369 83.2627 80.5798C83.2627 79.2158 82.8898 77.9373 82.2401 76.8409C84.354 75.5468 85.7674 73.216 85.7674 70.561C85.7674 69.197 85.3945 67.9185 84.7448 66.8221C86.8587 65.528 88.2721 63.1972 88.2721 60.5422C88.2721 58.6341 87.542 56.8933 86.3465 55.5847C87.6484 54.2126 88.3628 52.4231 88.3628 50.5236Z" fill="#E1E3E4"/>
<path d="M83.4799 30.0496H78.4705C77.1737 30.0496 76.1223 28.9982 76.1223 27.7015C76.1223 26.4048 77.1737 25.3534 78.4705 25.3534H83.4799C84.7766 25.3534 85.828 26.4048 85.828 27.7015C85.828 28.9982 84.7767 30.0496 83.4799 30.0496ZM48.4142 30.0496H43.4048C42.1081 30.0496 41.0566 28.9982 41.0566 27.7015C41.0566 26.4048 42.1081 25.3534 43.4048 25.3534H48.4142C49.7109 25.3534 50.7623 26.4048 50.7623 27.7015C50.7623 28.9982 49.7112 30.0496 48.4142 30.0496ZM55.9306 17.0353C55.1189 17.0353 54.3298 16.6142 53.895 15.861L51.3903 11.5226C50.7419 10.3997 51.1267 8.96341 52.2497 8.31513C53.3727 7.66669 54.8089 8.05153 55.4572 9.17451L57.9619 13.5128C58.6103 14.6358 58.2255 16.0721 57.1025 16.7203C56.7465 16.9267 56.3422 17.0354 55.9306 17.0353ZM70.9542 17.0353C70.5426 17.0354 70.1383 16.9267 69.7823 16.7203C68.6593 16.0719 68.2745 14.6358 68.9229 13.5128L71.4276 9.17451C72.0759 8.05153 73.5121 7.66638 74.6351 8.31513C75.7581 8.96357 76.1429 10.3997 75.4945 11.5226L72.9898 15.861C72.5553 16.6142 71.7657 17.0353 70.9542 17.0353Z" fill="#29CCB1"/>
<path d="M25.7158 75.606V87.9729H21.0195V75.606C21.0195 74.3099 22.0716 73.2578 23.3677 73.2578C24.6638 73.2578 25.7158 74.3099 25.7158 75.606Z" fill="#73C3FF"/>
<path d="M83.4799 30.0496H78.4705C77.1737 30.0496 76.1223 28.9982 76.1223 27.7015C76.1223 26.4048 77.1737 25.3534 78.4705 25.3534H83.4799C84.7766 25.3534 85.828 26.4048 85.828 27.7015C85.828 28.9982 84.7767 30.0496 83.4799 30.0496ZM48.4142 30.0496H43.4048C42.1081 30.0496 41.0566 28.9982 41.0566 27.7015C41.0566 26.4048 42.1081 25.3534 43.4048 25.3534H48.4142C49.7109 25.3534 50.7623 26.4048 50.7623 27.7015C50.7623 28.9982 49.7112 30.0496 48.4142 30.0496ZM55.9306 17.0353C55.1189 17.0353 54.3298 16.6142 53.895 15.861L51.3903 11.5226C50.7419 10.3997 51.1267 8.96341 52.2497 8.31513C53.3727 7.66669 54.8089 8.05153 55.4572 9.17451L57.9619 13.5128C58.6103 14.6358 58.2255 16.0721 57.1025 16.7203C56.7465 16.9267 56.3422 17.0354 55.9306 17.0353ZM70.9542 17.0353C70.5426 17.0354 70.1383 16.9267 69.7823 16.7203C68.6593 16.0719 68.2745 14.6358 68.9229 13.5128L71.4276 9.17451C72.0759 8.05153 73.5121 7.66638 74.6351 8.31513C75.7581 8.96357 76.1429 10.3997 75.4945 11.5226L72.9898 15.861C72.5553 16.6142 71.7657 17.0353 70.9542 17.0353Z" fill="#B0BABF"/>
<path d="M25.7158 75.606V87.9729H21.0195V75.606C21.0195 74.3099 22.0716 73.2578 23.3677 73.2578C24.6638 73.2578 25.7158 74.3099 25.7158 75.606Z" fill="#73C3FF"/>
<path d="M33.3856 43.166H13.3481C12.052 43.166 11 44.2181 11 45.5142V85.5891C11 86.8867 12.052 87.9372 13.3481 87.9669H28.3762C31.255 87.9372 33.7519 86.2763 34.9589 83.8624C35.4701 82.8437 35.7354 81.7194 35.7337 80.5797V45.5142C35.7337 44.2179 34.6817 43.166 33.3856 43.166Z" fill="#B0BABF"/>
<path d="M25.7158 75.4458V87.9693H21.0195V75.4458C21.0195 74.1497 22.0716 73.0977 23.3677 73.0977C24.6638 73.0977 25.7158 74.1497 25.7158 75.4458Z" fill="#E1E3E4"/>
</svg>
