<svg width="20" height="20" viewBox="0 0 20 20" fill="none" xmlns="http://www.w3.org/2000/svg">
<path fill-rule="evenodd" clip-rule="evenodd" d="M2.5 9.16406C2.5 5.02193 5.85786 1.66406 10 1.66406C14.1421 1.66406 17.5 5.02193 17.5 9.16406C17.5 11.6861 15.9919 13.8239 14.2541 15.3299L11.3863 17.8154C10.5907 18.5049 9.40931 18.5049 8.61373 17.8154L5.74588 15.3299C4.00814 13.8239 2.5 11.6861 2.5 9.16406ZM7.74408 10.5867L9.41074 12.2533C9.73618 12.5788 10.2638 12.5788 10.5893 12.2533L12.2559 10.5867C12.5814 10.2612 12.5814 9.73358 12.2559 9.40814C11.9305 9.0827 11.4028 9.0827 11.0774 9.40814L10.8333 9.65222V6.66406C10.8333 6.20383 10.4602 5.83073 10 5.83073C9.53976 5.83073 9.16667 6.20383 9.16667 6.66406V9.65222L8.92259 9.40814C8.59715 9.0827 8.06951 9.0827 7.74408 9.40814C7.41864 9.73358 7.41864 10.2612 7.74408 10.5867Z" fill="#B1B5C4"/>
</svg>
