<svg width="97" height="82" viewBox="0 0 97 82" fill="none" xmlns="http://www.w3.org/2000/svg">
<path fill-rule="evenodd" clip-rule="evenodd" d="M41.4632 6.8941C41.4632 6.48044 41.627 6.08396 41.9204 5.79049C42.2122 5.49859 42.6102 5.33313 43.0237 5.33313H78.2207L96.083 25.1465V50.0486C96.083 50.0486 96.1392 70.6174 90.298 80.4375C90.0139 80.8886 89.5177 81.1618 88.984 81.1618C83.0117 81.1665 47.5541 81.1665 37.6429 81.1665C37.0951 81.1665 36.5879 80.8777 36.3055 80.4094C36.023 79.9395 36.009 79.3557 36.2665 78.8718C41.1089 68.3556 41.4632 50.0486 41.4632 50.0486V6.8941Z" fill="#E2E3E4"/>
<path fill-rule="evenodd" clip-rule="evenodd" d="M95.8751 50.3176C95.8751 50.3176 95.9313 70.9067 90.0829 80.7364C89.7985 81.188 89.3017 81.4614 88.7673 81.4614C82.7876 81.4661 47.286 81.4661 37.3626 81.4661C36.8142 81.4661 36.3063 81.177 36.0235 80.7083C35.7407 80.238 35.7267 79.6536 35.9845 79.1692L36.0454 79.0348C55.286 79.9395 83.2267 76.5692 86.9063 75.1286C90.8376 73.5895 95.797 58.8208 95.8735 50.5114L95.8751 50.3176Z" fill="#B0BABF"/>
<path fill-rule="evenodd" clip-rule="evenodd" d="M95.8746 25.3905C91.1309 23.5171 86.109 23.464 80.9543 24.2593C80.4762 24.3359 79.9902 24.1827 79.6387 23.8499C79.2871 23.5155 79.1121 23.0374 79.1637 22.5562C79.7293 16.7843 79.159 11.1374 77.9902 5.55774C85.5496 11.1702 91.5184 17.7749 95.8746 25.3905Z" fill="#B0BABF"/>
<path fill-rule="evenodd" clip-rule="evenodd" d="M41.1871 10.8566C45.3652 11.3769 49.409 13.2394 52.6152 16.4456C59.0262 22.8566 60.0668 32.6159 55.7387 40.1144L58.3121 48.2753C58.4387 48.6769 58.3324 49.1144 58.0355 49.4112C57.9621 49.4831 57.8871 49.5581 57.8168 49.63C57.5371 49.9081 57.1262 50.0081 56.7512 49.8894L48.5496 47.3034C46.2465 48.6331 43.7293 49.4566 41.1621 49.7722C41.1809 49.255 41.1871 48.9706 41.1871 48.9706V10.8566Z" fill="#B0BABF"/>
<path fill-rule="evenodd" clip-rule="evenodd" d="M46.5736 45.3882C39.4049 49.5273 30.0736 48.532 23.9439 42.4023C16.6268 35.0851 16.6268 23.2038 23.9439 15.8866C31.2611 8.5679 43.1424 8.5679 50.4611 15.8866C56.5892 22.0148 57.5846 31.346 53.4471 38.5148L55.9064 46.3179C56.0283 46.7007 55.9252 47.1195 55.6424 47.4023C55.5721 47.4726 55.5017 47.5429 55.433 47.6116C55.1658 47.8788 54.7736 47.9741 54.4142 47.8616L46.5736 45.3882Z" fill="#E2E3E4"/>
<path fill-rule="evenodd" clip-rule="evenodd" d="M33.8955 23.5343C33.8612 22.0437 34.419 20.9578 35.283 20.3203C36.6393 19.3203 38.6643 19.3625 39.7643 20.6015C40.2377 21.1343 40.5112 21.8875 40.519 22.8406C40.5377 25.125 39.4643 26.4609 38.4158 27.8453C37.0033 29.7093 35.5924 31.625 35.4174 34.8234C35.3705 35.6843 36.0315 36.4218 36.8924 36.4687C37.7533 36.5156 38.4908 35.8546 38.5377 34.9937C38.6705 32.564 39.833 31.1484 40.9065 29.7328C42.344 27.8375 43.669 25.9468 43.644 22.8156C43.6283 20.975 43.0143 19.5546 42.1018 18.5265C39.969 16.125 36.0549 15.8671 33.4283 17.8046C31.8533 18.9671 30.708 20.8921 30.7721 23.6078C30.7924 24.4703 31.508 25.1531 32.3705 25.1328C33.233 25.1125 33.9158 24.3968 33.8955 23.5343Z" fill="#B0BABF"/>
<path d="M36.8311 42.2726C37.8925 42.2726 38.7529 41.4121 38.7529 40.3507C38.7529 39.2893 37.8925 38.4288 36.8311 38.4288C35.7696 38.4288 34.9092 39.2893 34.9092 40.3507C34.9092 41.4121 35.7696 42.2726 36.8311 42.2726Z" fill="#B0BABF"/>
<path fill-rule="evenodd" clip-rule="evenodd" d="M18.0895 3.50664L24.3395 11.3691C24.877 12.0441 25.8598 12.1566 26.5348 11.6207C27.2098 11.0848 27.3223 10.1004 26.7864 9.42539L20.5364 1.56289C19.9989 0.887886 19.0161 0.775386 18.3411 1.31132C17.6661 1.84882 17.5536 2.83164 18.0895 3.50664Z" fill="#B0BABF"/>
<path fill-rule="evenodd" clip-rule="evenodd" d="M1.34693 7.41761L17.6782 16.7926C18.4251 17.2223 19.3813 16.9645 19.811 16.216C20.2407 15.4676 19.9813 14.5129 19.2329 14.0832L2.90318 4.70823C2.15474 4.27855 1.20006 4.53636 0.770368 5.2848C0.34068 6.03323 0.598493 6.98792 1.34693 7.41761Z" fill="#B0BABF"/>
<path fill-rule="evenodd" clip-rule="evenodd" d="M3.6875 24.8126H14.625C15.4875 24.8126 16.1875 24.1126 16.1875 23.2501C16.1875 22.3876 15.4875 21.6876 14.625 21.6876H3.6875C2.825 21.6876 2.125 22.3876 2.125 23.2501C2.125 24.1126 2.825 24.8126 3.6875 24.8126Z" fill="#B0BABF"/>
</svg>
