<svg width="166" height="165" viewBox="0 0 166 165" fill="none" xmlns="http://www.w3.org/2000/svg">
<g filter="url(#filter0_di_3377_303680)">
<path d="M148 74C148 109.899 118.899 139 83 139C47.1015 139 18 109.899 18 74C18 38.1015 47.1015 9 83 9C118.899 9 148 38.1015 148 74Z" fill="#E92857"/>
</g>
<path opacity="0.4" fill-rule="evenodd" clip-rule="evenodd" d="M145.888 74.0008C145.888 108.733 117.733 136.888 83.0008 136.888C48.269 136.888 20.1133 108.733 20.1133 74.0008C20.1133 39.269 48.269 11.1133 83.0008 11.1133C117.733 11.1133 145.888 39.269 145.888 74.0008ZM83.0008 136.563C117.553 136.563 145.563 108.553 145.563 74.0008C145.563 39.4485 117.553 11.4383 83.0008 11.4383C48.4485 11.4383 20.4383 39.4485 20.4383 74.0008C20.4383 108.553 48.4485 136.563 83.0008 136.563Z" fill="#FCD9D3"/>
<g filter="url(#filter1_bi_3377_303680)">
<path fill-rule="evenodd" clip-rule="evenodd" d="M115.674 30.4946C117.26 28.9081 119.833 28.9081 121.419 30.4946L131.575 40.6508C133.162 42.2373 133.162 44.8096 131.575 46.3961C129.989 47.9826 127.417 47.9826 125.83 46.3961L123.625 44.1906L114.599 53.216C113.013 54.8025 110.44 54.8025 108.854 53.216C107.267 51.6295 107.267 49.0572 108.854 47.4707L117.879 38.4453L115.674 36.2398C114.087 34.6533 114.087 32.0811 115.674 30.4946Z" fill="#E92857"/>
</g>
<g filter="url(#filter2_bi_3377_303680)">
<path fill-rule="evenodd" clip-rule="evenodd" d="M108.854 53.2316C94.5768 38.954 71.4232 38.954 57.1457 53.2316C42.8681 67.5092 42.8681 90.6627 57.1457 104.94C71.4232 119.218 94.5768 119.218 108.854 104.94C123.132 90.6627 123.132 67.5092 108.854 53.2316ZM114.6 47.4864C97.149 30.0358 68.851 30.0358 51.4004 47.4864C33.9499 64.9369 33.9499 93.235 51.4004 110.686C68.851 128.136 97.149 128.136 114.6 110.686C132.05 93.235 132.05 64.9369 114.6 47.4864Z" fill="#E92857" fill-opacity="0.1"/>
</g>
<g filter="url(#filter3_bi_3377_303680)">
<path fill-rule="evenodd" clip-rule="evenodd" d="M68.7812 23.2188C68.7812 20.9751 70.6001 19.1562 72.8438 19.1562H93.1563C95.3999 19.1562 97.2188 20.9751 97.2188 23.2188C97.2188 25.4624 95.3999 27.2812 93.1563 27.2812H72.8438C70.6001 27.2812 68.7812 25.4624 68.7812 23.2188Z" fill="#E92857"/>
</g>
<path d="M77.1895 47.1216C77.2383 47.3987 77.0533 47.6629 76.7762 47.7118C76.4992 47.7606 76.235 47.5756 76.1861 47.2986C76.1373 47.0215 76.3223 46.7573 76.5993 46.7084C76.8764 46.6595 77.1406 46.8445 77.1895 47.1216Z" fill="#FCADA9"/>
<path d="M71.7605 48.599C71.8568 48.8634 71.7204 49.1557 71.4561 49.2519C71.1917 49.3481 70.8994 49.2118 70.8031 48.9475C70.7069 48.6831 70.8432 48.3907 71.1076 48.2945C71.372 48.1983 71.6643 48.3346 71.7605 48.599Z" fill="#FCADA9"/>
<path d="M66.6722 51.0177C66.8129 51.2613 66.7294 51.5729 66.4857 51.7136C66.2421 51.8542 65.9305 51.7708 65.7899 51.5271C65.6492 51.2835 65.7327 50.9719 65.9763 50.8312C66.22 50.6905 66.5315 50.774 66.6722 51.0177Z" fill="#FCADA9"/>
<path d="M62.0845 54.2588C62.2653 54.4743 62.2372 54.7956 62.0217 54.9765C61.8062 55.1573 61.4848 55.1292 61.304 54.9137C61.1232 54.6982 61.1513 54.3768 61.3668 54.196C61.5823 54.0151 61.9036 54.0432 62.0845 54.2588Z" fill="#FCADA9"/>
<path d="M58.1311 58.2657C58.3466 58.4466 58.3747 58.7679 58.1939 58.9834C58.013 59.1989 57.6917 59.2271 57.4762 59.0462C57.2607 58.8654 57.2325 58.544 57.4134 58.3285C57.5942 58.113 57.9155 58.0849 58.1311 58.2657Z" fill="#FCADA9"/>
<path d="M54.931 62.9134C55.1747 63.0541 55.2582 63.3656 55.1175 63.6093C54.9768 63.8529 54.6653 63.9364 54.4216 63.7957C54.178 63.6551 54.0945 63.3435 54.2352 63.0998C54.3758 62.8562 54.6874 62.7727 54.931 62.9134Z" fill="#FCADA9"/>
<path d="M52.5811 68.0293C52.8454 68.1256 52.9818 68.4179 52.8855 68.6823C52.7893 68.9467 52.497 69.083 52.2326 68.9867C51.9682 68.8905 51.8319 68.5982 51.9281 68.3338C52.0244 68.0694 52.3167 67.9331 52.5811 68.0293Z" fill="#FCADA9"/>
<path d="M51.1591 73.4679C51.4361 73.5168 51.6211 73.781 51.5723 74.0581C51.5234 74.3351 51.2592 74.5201 50.9822 74.4713C50.7051 74.4224 50.5201 74.1582 50.5689 73.8811C50.6178 73.6041 50.882 73.4191 51.1591 73.4679Z" fill="#FCADA9"/>
<path d="M50.7047 79.0808C50.9861 79.0808 51.2142 79.3088 51.2142 79.5902C51.2142 79.8715 50.9861 80.0996 50.7047 80.0996C50.4234 80.0996 50.1953 79.8715 50.1953 79.5902C50.1953 79.3088 50.4234 79.0808 50.7047 79.0808Z" fill="#FCADA9"/>
<path d="M51.2349 84.6933C51.512 84.6445 51.7762 84.8295 51.8251 85.1065C51.8739 85.3836 51.6889 85.6478 51.4118 85.6967C51.1348 85.7456 50.8706 85.5605 50.8217 85.2835C50.7728 85.0064 50.9579 84.7422 51.2349 84.6933Z" fill="#FCADA9"/>
<path d="M52.724 90.1066C52.9884 90.0104 53.2807 90.1467 53.3769 90.4111C53.4731 90.6755 53.3368 90.9678 53.0724 91.064C52.8081 91.1603 52.5157 91.024 52.4195 90.7596C52.3233 90.4952 52.4596 90.2029 52.724 90.1066Z" fill="#FCADA9"/>
<path d="M55.1388 95.2067C55.3824 95.066 55.694 95.1495 55.8347 95.3931C55.9753 95.6368 55.8919 95.9484 55.6482 96.089C55.4045 96.2297 55.093 96.1462 54.9523 95.9026C54.8117 95.6589 54.8951 95.3474 55.1388 95.2067Z" fill="#FCADA9"/>
<path d="M58.3955 99.8003C58.611 99.6194 58.9323 99.6475 59.1132 99.863C59.294 100.079 59.2659 100.4 59.0504 100.581C58.8349 100.762 58.5136 100.733 58.3327 100.518C58.1519 100.302 58.18 99.9811 58.3955 99.8003Z" fill="#FCADA9"/>
<path d="M62.4024 103.738C62.5833 103.523 62.9046 103.494 63.1201 103.675C63.3356 103.856 63.3638 104.177 63.1829 104.393C63.0021 104.608 62.6808 104.637 62.4652 104.456C62.2497 104.275 62.2216 103.954 62.4024 103.738Z" fill="#FCADA9"/>
<path d="M67.0325 106.932C67.1732 106.689 67.4847 106.605 67.7284 106.746C67.972 106.886 68.0555 107.198 67.9149 107.442C67.7742 107.685 67.4626 107.769 67.219 107.628C66.9753 107.487 66.8919 107.176 67.0325 106.932Z" fill="#FCADA9"/>
<path d="M72.1504 109.286C72.2466 109.022 72.539 108.885 72.8034 108.982C73.0677 109.078 73.204 109.37 73.1078 109.635C73.0116 109.899 72.7193 110.035 72.4549 109.939C72.1905 109.843 72.0542 109.55 72.1504 109.286Z" fill="#FCADA9"/>
<path d="M77.5968 110.708C77.6457 110.431 77.9099 110.246 78.187 110.295C78.464 110.344 78.649 110.608 78.6002 110.885C78.5513 111.162 78.2871 111.347 78.01 111.298C77.733 111.249 77.548 110.985 77.5968 110.708Z" fill="#FCADA9"/>
<path d="M83.2077 111.168C83.2077 110.887 83.4358 110.659 83.7171 110.659C83.9985 110.659 84.2266 110.887 84.2266 111.168C84.2266 111.45 83.9985 111.678 83.7171 111.678C83.4358 111.678 83.2077 111.45 83.2077 111.168Z" fill="#FCADA9"/>
<path d="M88.8105 110.652C88.7617 110.375 88.9467 110.111 89.2237 110.062C89.5008 110.013 89.765 110.198 89.8139 110.475C89.8627 110.752 89.6777 111.016 89.4007 111.065C89.1236 111.114 88.8594 110.929 88.8105 110.652Z" fill="#FCADA9"/>
<path d="M94.2395 109.151C94.1432 108.887 94.2796 108.594 94.5439 108.498C94.8083 108.402 95.1006 108.538 95.1969 108.803C95.2931 109.067 95.1568 109.359 94.8924 109.455C94.628 109.552 94.3357 109.415 94.2395 109.151Z" fill="#FCADA9"/>
<path d="M99.3278 106.742C99.1871 106.498 99.2706 106.187 99.5143 106.046C99.7579 105.906 100.069 105.989 100.21 106.233C100.351 106.476 100.267 106.788 100.024 106.929C99.78 107.069 99.4685 106.986 99.3278 106.742Z" fill="#FCADA9"/>
<path d="M103.916 103.483C103.735 103.268 103.763 102.947 103.978 102.766C104.194 102.585 104.515 102.613 104.696 102.829C104.877 103.044 104.849 103.365 104.633 103.546C104.418 103.727 104.096 103.699 103.916 103.483Z" fill="#FCADA9"/>
<path d="M107.869 99.4843C107.653 99.3034 107.625 98.9821 107.806 98.7666C107.987 98.5511 108.308 98.5229 108.524 98.7038C108.739 98.8846 108.767 99.206 108.587 99.4215C108.406 99.637 108.084 99.6651 107.869 99.4843Z" fill="#FCADA9"/>
<path d="M111.069 94.8366C110.825 94.6959 110.742 94.3844 110.882 94.1407C111.023 93.8971 111.335 93.8136 111.578 93.9543C111.822 94.0949 111.905 94.4065 111.765 94.6502C111.624 94.8938 111.313 94.9773 111.069 94.8366Z" fill="#FCADA9"/>
<path d="M113.419 89.7285C113.155 89.6323 113.018 89.3399 113.114 89.0755C113.211 88.8112 113.503 88.6748 113.767 88.7711C114.032 88.8673 114.168 89.1596 114.072 89.424C113.976 89.6884 113.683 89.8247 113.419 89.7285Z" fill="#FCADA9"/>
<path d="M114.837 84.2821C114.56 84.2332 114.375 83.969 114.424 83.6919C114.473 83.4149 114.737 83.2299 115.014 83.2787C115.291 83.3276 115.476 83.5918 115.427 83.8689C115.378 84.1459 115.114 84.3309 114.837 84.2821Z" fill="#FCADA9"/>
<path d="M115.295 78.677C115.014 78.677 114.786 78.449 114.786 78.1676C114.786 77.8863 115.014 77.6582 115.295 77.6582C115.577 77.6582 115.805 77.8863 115.805 78.1676C115.805 78.449 115.577 78.677 115.295 78.677Z" fill="#FCADA9"/>
<path d="M114.765 73.0567C114.488 73.1055 114.224 72.9205 114.175 72.6435C114.126 72.3664 114.311 72.1022 114.588 72.0533C114.865 72.0044 115.129 72.1895 115.178 72.4665C115.227 72.7436 115.042 73.0078 114.765 73.0567Z" fill="#FCADA9"/>
<path d="M113.276 67.6434C113.012 67.7396 112.719 67.6033 112.623 67.3389C112.527 67.0745 112.663 66.7822 112.928 66.686C113.192 66.5897 113.484 66.726 113.58 66.9904C113.677 67.2548 113.54 67.5471 113.276 67.6434Z" fill="#FCADA9"/>
<path d="M110.861 62.5433C110.618 62.684 110.306 62.6005 110.165 62.3569C110.025 62.1132 110.108 61.8016 110.352 61.661C110.595 61.5203 110.907 61.6038 111.048 61.8474C111.188 62.0911 111.105 62.4026 110.861 62.5433Z" fill="#FCADA9"/>
<path d="M107.604 57.9576C107.389 58.1384 107.068 58.1103 106.887 57.8948C106.706 57.6792 106.734 57.3579 106.95 57.1771C107.165 56.9962 107.486 57.0243 107.667 57.2399C107.848 57.4554 107.82 57.7767 107.604 57.9576Z" fill="#FCADA9"/>
<path d="M103.598 54.012C103.417 54.2275 103.095 54.2556 102.88 54.0747C102.664 53.8939 102.636 53.5726 102.817 53.357C102.998 53.1415 103.319 53.1134 103.535 53.2943C103.75 53.4751 103.778 53.7964 103.598 54.012Z" fill="#FCADA9"/>
<path d="M98.9675 50.8178C98.8268 51.0614 98.5153 51.1449 98.2716 51.0043C98.028 50.8636 97.9445 50.552 98.0851 50.3084C98.2258 50.0647 98.5374 49.9812 98.781 50.1219C99.0247 50.2626 99.1081 50.5741 98.9675 50.8178Z" fill="#FCADA9"/>
<path d="M93.8496 48.4639C93.7534 48.7283 93.461 48.8646 93.1967 48.7684C92.9323 48.6721 92.796 48.3798 92.8922 48.1154C92.9884 47.851 93.2807 47.7147 93.5451 47.811C93.8095 47.9072 93.9458 48.1995 93.8496 48.4639Z" fill="#FCADA9"/>
<path d="M88.4032 47.0497C88.3543 47.3268 88.0901 47.5118 87.8131 47.4629C87.536 47.4141 87.351 47.1499 87.3998 46.8728C87.4487 46.5957 87.7129 46.4107 87.99 46.4596C88.267 46.5084 88.452 46.7726 88.4032 47.0497Z" fill="#FCADA9"/>
<path d="M82.7923 46.5817C82.7923 46.863 82.5642 47.0911 82.2829 47.0911C82.0015 47.0911 81.7734 46.863 81.7734 46.5817C81.7734 46.3003 82.0015 46.0723 82.2829 46.0723C82.5642 46.0723 82.7923 46.3003 82.7923 46.5817Z" fill="#FCADA9"/>
<defs>
<filter id="filter0_di_3377_303680" x="0.666668" y="0.333334" width="164.667" height="164.667" filterUnits="userSpaceOnUse" color-interpolation-filters="sRGB">
<feFlood flood-opacity="0" result="BackgroundImageFix"/>
<feColorMatrix in="SourceAlpha" type="matrix" values="0 0 0 0 0 0 0 0 0 0 0 0 0 0 0 0 0 0 127 0" result="hardAlpha"/>
<feOffset dy="8.66667"/>
<feGaussianBlur stdDeviation="8.66667"/>
<feComposite in2="hardAlpha" operator="out"/>
<feColorMatrix type="matrix" values="0 0 0 0 0 0 0 0 0 0 0 0 0 0 0 0 0 0 0.2 0"/>
<feBlend mode="multiply" in2="BackgroundImageFix" result="effect1_dropShadow_3377_303680"/>
<feBlend mode="normal" in="SourceGraphic" in2="effect1_dropShadow_3377_303680" result="shape"/>
<feColorMatrix in="SourceAlpha" type="matrix" values="0 0 0 0 0 0 0 0 0 0 0 0 0 0 0 0 0 0 127 0" result="hardAlpha"/>
<feOffset dy="6.5"/>
<feGaussianBlur stdDeviation="6.5"/>
<feComposite in2="hardAlpha" operator="arithmetic" k2="-1" k3="1"/>
<feColorMatrix type="matrix" values="0 0 0 0 0.988235 0 0 0 0 0.678431 0 0 0 0 0.662745 0 0 0 0.8 0"/>
<feBlend mode="normal" in2="shape" result="effect2_innerShadow_3377_303680"/>
</filter>
<filter id="filter1_bi_3377_303680" x="102.789" y="24.4297" width="34.8516" height="34.8516" filterUnits="userSpaceOnUse" color-interpolation-filters="sRGB">
<feFlood flood-opacity="0" result="BackgroundImageFix"/>
<feGaussianBlur in="BackgroundImageFix" stdDeviation="2.4375"/>
<feComposite in2="SourceAlpha" operator="in" result="effect1_backgroundBlur_3377_303680"/>
<feBlend mode="normal" in="SourceGraphic" in2="effect1_backgroundBlur_3377_303680" result="shape"/>
<feColorMatrix in="SourceAlpha" type="matrix" values="0 0 0 0 0 0 0 0 0 0 0 0 0 0 0 0 0 0 127 0" result="hardAlpha"/>
<feOffset/>
<feGaussianBlur stdDeviation="4.0625"/>
<feComposite in2="hardAlpha" operator="arithmetic" k2="-1" k3="1"/>
<feColorMatrix type="matrix" values="0 0 0 0 0.988235 0 0 0 0 0.678431 0 0 0 0 0.662745 0 0 0 1 0"/>
<feBlend mode="normal" in2="shape" result="effect2_innerShadow_3377_303680"/>
</filter>
<filter id="filter2_bi_3377_303680" x="33.4375" y="29.5234" width="99.125" height="99.125" filterUnits="userSpaceOnUse" color-interpolation-filters="sRGB">
<feFlood flood-opacity="0" result="BackgroundImageFix"/>
<feGaussianBlur in="BackgroundImageFix" stdDeviation="2.4375"/>
<feComposite in2="SourceAlpha" operator="in" result="effect1_backgroundBlur_3377_303680"/>
<feBlend mode="normal" in="SourceGraphic" in2="effect1_backgroundBlur_3377_303680" result="shape"/>
<feColorMatrix in="SourceAlpha" type="matrix" values="0 0 0 0 0 0 0 0 0 0 0 0 0 0 0 0 0 0 127 0" result="hardAlpha"/>
<feOffset/>
<feGaussianBlur stdDeviation="4.0625"/>
<feComposite in2="hardAlpha" operator="arithmetic" k2="-1" k3="1"/>
<feColorMatrix type="matrix" values="0 0 0 0 0.988235 0 0 0 0 0.678431 0 0 0 0 0.662745 0 0 0 0.8 0"/>
<feBlend mode="normal" in2="shape" result="effect2_innerShadow_3377_303680"/>
</filter>
<filter id="filter3_bi_3377_303680" x="63.9062" y="14.2812" width="38.1875" height="17.875" filterUnits="userSpaceOnUse" color-interpolation-filters="sRGB">
<feFlood flood-opacity="0" result="BackgroundImageFix"/>
<feGaussianBlur in="BackgroundImageFix" stdDeviation="2.4375"/>
<feComposite in2="SourceAlpha" operator="in" result="effect1_backgroundBlur_3377_303680"/>
<feBlend mode="normal" in="SourceGraphic" in2="effect1_backgroundBlur_3377_303680" result="shape"/>
<feColorMatrix in="SourceAlpha" type="matrix" values="0 0 0 0 0 0 0 0 0 0 0 0 0 0 0 0 0 0 127 0" result="hardAlpha"/>
<feOffset/>
<feGaussianBlur stdDeviation="4.0625"/>
<feComposite in2="hardAlpha" operator="arithmetic" k2="-1" k3="1"/>
<feColorMatrix type="matrix" values="0 0 0 0 0.988235 0 0 0 0 0.678431 0 0 0 0 0.662745 0 0 0 1 0"/>
<feBlend mode="normal" in2="shape" result="effect2_innerShadow_3377_303680"/>
</filter>
</defs>
</svg>
