<svg width="20" height="20" viewBox="0 0 20 20" fill="none" xmlns="http://www.w3.org/2000/svg">
<path fill-rule="evenodd" clip-rule="evenodd" d="M2.86331 4.32003C2.64575 4.74702 2.55847 5.25303 2.52346 5.99118C2.51264 6.21927 2.50723 6.33331 2.55099 6.42674C2.58864 6.50712 2.65539 6.57711 2.73389 6.61853C2.82514 6.66667 2.94357 6.66667 3.18042 6.66667H6.83333C7.06669 6.66667 7.18337 6.66667 7.2725 6.62125C7.3509 6.58131 7.41464 6.51756 7.45459 6.43916C7.5 6.35003 7.5 6.23336 7.5 6L7.5 3.16727C7.5 2.93343 7.5 2.8165 7.45406 2.72695C7.41387 2.64863 7.34878 2.58414 7.27009 2.54468C7.18012 2.49957 7.06419 2.50064 6.83234 2.50279C5.60692 2.51413 4.89246 2.57164 4.32003 2.86331C3.69282 3.18289 3.18289 3.69282 2.86331 4.32003ZM9.83333 2.5C9.59998 2.5 9.4833 2.5 9.39417 2.54541C9.31577 2.58536 9.25203 2.6491 9.21208 2.7275C9.16667 2.81663 9.16667 2.93331 9.16667 3.16667L9.16667 6C9.16667 6.23336 9.16667 6.35003 9.21208 6.43916C9.25203 6.51756 9.31577 6.58131 9.39417 6.62125C9.4833 6.66667 9.59998 6.66667 9.83333 6.66667H16.8196C17.0564 6.66667 17.1749 6.66667 17.2661 6.61853C17.3446 6.57711 17.4114 6.50712 17.449 6.42674C17.4928 6.33331 17.4874 6.21927 17.4765 5.99118C17.4415 5.25303 17.3542 4.74702 17.1367 4.32003C16.8171 3.69282 16.3072 3.18289 15.68 2.86331C14.9669 2.5 14.0335 2.5 12.1667 2.5H9.83333ZM17.5 9C17.5 8.76664 17.5 8.64997 17.4546 8.56084C17.4146 8.48244 17.3509 8.41869 17.2725 8.37875C17.1834 8.33333 17.0667 8.33333 16.8333 8.33333H9.83333C9.59998 8.33333 9.4833 8.33333 9.39417 8.37875C9.31577 8.41869 9.25203 8.48244 9.21208 8.56084C9.16667 8.64997 9.16667 8.76664 9.16667 9V11C9.16667 11.2334 9.16667 11.35 9.21208 11.4392C9.25203 11.5176 9.31577 11.5813 9.39417 11.6213C9.4833 11.6667 9.59998 11.6667 9.83333 11.6667H16.8333C17.0667 11.6667 17.1834 11.6667 17.2725 11.6213C17.3509 11.5813 17.4146 11.5176 17.4546 11.4392C17.5 11.35 17.5 11.2334 17.5 11V9ZM17.4765 14.0088C17.4874 13.7807 17.4928 13.6667 17.449 13.5733C17.4114 13.4929 17.3446 13.4229 17.2661 13.3815C17.1749 13.3333 17.0564 13.3333 16.8196 13.3333H9.83333C9.59998 13.3333 9.4833 13.3333 9.39417 13.3787C9.31577 13.4187 9.25203 13.4824 9.21208 13.5608C9.16667 13.65 9.16667 13.7666 9.16667 14L9.16667 16.8333C9.16667 17.0667 9.16667 17.1834 9.21208 17.2725C9.25203 17.3509 9.31577 17.4146 9.39417 17.4546C9.4833 17.5 9.59998 17.5 9.83333 17.5H12.1667C14.0335 17.5 14.9669 17.5 15.68 17.1367C16.3072 16.8171 16.8171 16.3072 17.1367 15.68C17.3542 15.253 17.4415 14.747 17.4765 14.0088ZM6.83234 17.4972C7.06419 17.4994 7.18012 17.5004 7.27009 17.4553C7.34878 17.4159 7.41387 17.3514 7.45406 17.273C7.5 17.1835 7.5 17.0666 7.5 16.8327L7.5 14C7.5 13.7666 7.5 13.65 7.45459 13.5608C7.41464 13.4824 7.3509 13.4187 7.2725 13.3787C7.18337 13.3333 7.06669 13.3333 6.83333 13.3333H3.18042C2.94357 13.3333 2.82514 13.3333 2.73389 13.3815C2.65539 13.4229 2.58864 13.4929 2.55099 13.5733C2.50723 13.6667 2.51264 13.7807 2.52346 14.0088C2.55847 14.747 2.64575 15.253 2.86331 15.68C3.18289 16.3072 3.69282 16.8171 4.32003 17.1367C4.89246 17.4284 5.60692 17.4859 6.83234 17.4972ZM2.5 11C2.5 11.2334 2.5 11.35 2.54541 11.4392C2.58536 11.5176 2.6491 11.5813 2.7275 11.6213C2.81663 11.6667 2.93331 11.6667 3.16667 11.6667H6.83333C7.06669 11.6667 7.18337 11.6667 7.2725 11.6213C7.3509 11.5813 7.41464 11.5176 7.45459 11.4392C7.5 11.35 7.5 11.2334 7.5 11V9C7.5 8.76664 7.5 8.64997 7.45459 8.56084C7.41464 8.48244 7.3509 8.41869 7.2725 8.37875C7.18337 8.33333 7.06669 8.33333 6.83333 8.33333H3.16667C2.93331 8.33333 2.81663 8.33333 2.7275 8.37875C2.6491 8.41869 2.58536 8.48244 2.54541 8.56084C2.5 8.64997 2.5 8.76664 2.5 9V11Z" fill="#FFCF00"/>
</svg>
