<?xml version="1.0" encoding="UTF-8"?>
<svg id="Layer_2" data-name="Layer 2" xmlns="http://www.w3.org/2000/svg" viewBox="0 0 449.88 250.13">
  <defs>
    <style>
      .cls-1 {
        stroke-width: 0px;
      }
    </style>
  </defs>
  <g id="Layer_2-2" data-name="Layer 2">
    <g>
      <g>
        <path class="cls-1" d="M447.83,104.36c-.25.01-.47.03-.62.04-4.55,0-9.15.44-13.7.65-18.27.87-36.52,2.06-54.79,3.11-8.54.49-17.08,1.12-25.61,1.67-3.25,0-6.56.42-9.8.63s-6.34.6-9.51.85c-1.5.12-3.01.24-4.51.35-1.41.11-2.83.17-4.24.22-.09,0-.19,0-.26-.06-.09-.09-.04-.25.01-.37.68-1.47,1.69-2.69,2.65-3.98,1.21-1.56,2.42-3.11,3.64-4.67,2.74-3.53,5.46-7.07,8.23-10.58,1.93-2.44,4.14-4.7,5.84-7.29,1.63-2.48,3.17-5.03,4.64-7.62,1.38-2.42,2.78-4.83,3.8-7.44.37-.94.7-1.9.98-2.87.26-.89-.08-1.69-.7-2.38-.1-.11-.22-.22-.37-.23-.14-.01-.28.07-.39.16-.98.75-1.61,1.86-2.15,2.95-.64,1.3-1.24,2.62-1.91,3.91-2.68,5.15-5.9,9.99-9.35,14.65-3.59,4.83-7.37,9.53-11.09,14.26-2.36,3.01-4.61,6.15-7.1,9.05-1.71,2.19-3.54,3.93-6.69,4.07-5.23.22-10.45.79-15.65,1.42-8.32,1.01-16.61,2.2-24.92,3.3-5.94.79-11.88,1.57-17.81,2.37-3.36.45-6.72.92-10.4,1.43,2.23-2.44,4.21-4.57,6.15-6.73,1.1-1.21,2.11-1.35,3.38-.14,1.07,1,6.63.71,7.67-.25,3.81-3.52,7.62-7.05,11.44-10.57.77-.72,1.57-2.2.65-3.15s-3.21-.87-4.39-.54c-1.52.43-2.85,1.49-3.6,2.89-.58,1.09-.81,2.34-1.39,3.44-.63,1.2-1.66,2.15-2.79,2.89s-2.38,1.28-3.63,1.82c-.44.19-.95.37-1.36.14-.34-.19-.49-.62-.47-1.01s.2-.75.38-1.1c1.08-2.12,2.35-4.14,3.79-6.03.75-.98,1.56-1.89,2.36-2.83.69-.82,1.6-1.83,1.62-2.97.01-.67-.2-1.32-.43-1.95-.17-.45-.39-.94-.84-1.1-.35-.12-.74,0-1.03.23-1.29,1.01-2.2,2.59-3.28,3.8-.64.72-1.07,1.76-1.58,2.58-.55.9-1.12,1.78-1.71,2.66-1.54,2.31-3.18,4.55-4.92,6.72-.84,1.05-1.68,2.28-2.68,3.19-.9.82-1.86,1.59-2.73,2.46-1.6,1.51-3.45,2.77-5.23,4.08-.11.08-.94-.59-.93-.6,1.73-2.77,3.11-5.9,5.36-8.17,3.83-3.85,7.83-7.52,11.23-11.79.58-.74,1.08-1.44,1.5-2.21.64-1.16,1.19-2.13,1.95-3.34,3.49-4.78,8.67-11.73,9.14-15.19.32-2.33,2.48-4.03,3.43-6.17.32-.72-.07-2.01-.57-2.74-.29-.43-1.68-.66-2.15-.35-1.58,1.05-3.28,2.16-4.37,3.66-3.45,4.72-6.7,9.58-9.92,14.46-1.95,2.95-3.78,5.97-5.69,8.95-1.54,2.4-2.83,5.07-5.79,5.92-1.71.49-3.31.49-4.84,1.48-1.88,1.22-3.82,2.34-5.7,3.57-1.13.74-2.35,1.45-3.4,2.31-.84.69-1.69,1.38-2.88,1.25-1.08-.12-1.88-.99-2.66-1.75-1.84-1.81-4.11-1.11-6.35-1.93-.3-.11-.54-.45-.42-.75.07-.17.23-.28.38-.38,1.71-1.16,3.43-2.32,5.14-3.48,1.41-.96,3.54-1.86,4.28-3.48.38-.82.12-1.7.27-2.59.25-1.44,1.5-2.82,2.28-4.03,1.03-1.6,2.07-3.19,3.04-4.82.24-.41.31-1.47-.2-1.79-.48-.3-1.24.2-1.58.56-.84.89-1.71,1.84-2.23,2.93-2.43,5.01-7.04,7.73-11.25,10.85-2.26,1.68-4.8,3.01-6.98,4.79-4.45,3.65-8.83,7.4-13.09,11.28-4.19,3.82-8.3,7.74-12.25,11.81-2.16,2.23-4.62,5.23-7.98,5.49-2.12.16-4.21.53-6.29.96-1.06.22-2.12.46-3.18.69-.96.21-1.99.34-2.93.63-.24.07-.49.14-.74.12s-.43-.04-.51-.28c-.09-.28.29-.72.49-.94.52-.58.97-.93,1.51-1.49.63-.65,1.28-1.26,1.94-1.89,1.54-1.47,3.08-2.95,4.63-4.41,7.02-6.6,14.08-13.14,21.06-19.78,3.61-3.43,7.05-7.03,10.6-10.52,5.79-5.71,11.53-11.47,17.43-17.07,5.15-4.9,10.34-9.76,15.78-14.32,2.67-2.24,5.98-3.7,8.91-5.65,3.82-2.56,7.56-5.23,11.32-7.88,4.76-3.36,9.56-6.63,14.07-10.31,4.26-3.47,8.49-6.97,12.59-10.63,4.16-3.71,8.18-7.59,11.91-11.72,1.89-2.09,3.7-4.24,5.42-6.47,1.44-1.86,1.94-4.58,1.71-6.91-.22-2.25-1.14-6.44-4.06-6.39-1.33.02-2.53.75-3.65,1.48-9.22,6.04-17.16,14.29-24.69,22.26-4.15,4.47-8.37,8.86-12.56,13.3-8.09,8.56-15.93,17.36-24.05,25.89-2.13,2.24-4.37,4.41-6.93,6.15-3.92,2.66-8.15,4.81-12.19,7.28-7.93,4.89-16.29,9.1-24.5,13.52-9.5,5.11-19.02,10.19-28.58,15.18-8.06,4.2-16.18,8.28-24.31,12.35-5.25,2.63-10.56,5.16-15.85,7.72-4.49,2.18-8.99,4.32-13.48,6.49-6.71,3.25-13.37,6.61-20.14,9.73-8.19,3.77-16.43,7.43-24.72,10.99-10.71,4.59-21.37,9.89-32.63,12.99-3.78,1.04-7.63,1.86-11.52,2.43s-7.73,1.53-11.59,2.42c-1.41.33-2.81.77-4.23,1.04-1.1.22-2.21.39-3.26.83-.47.2-.91.56-1,1.06-.07.45.17.89.48,1.22.59.61,1.45.91,2.29.99,2.01.19,4.21-.15,6.24-.19,2.64-.05,5.29-.09,7.94-.14,7.12-.13,14.21-.23,21.31-.68.32-.02.65-.05.92-.22s.42-.56.24-.83c-.17-.25-.51-.27-.81-.27-5.27,0-10.55.05-15.81-.14-2.3-.09-4.58.14-6.88.22-.35.01-.75-.11-.85-.44-.08-.26.08-.54.29-.69s.49-.22.75-.28c8.96-1.97,17.92-3.94,26.87-5.97,8.83-2.01,17.61-4.24,26.46-6.2,11.76-2.6,23.59-4.86,35.35-7.48,1.62-.36,3.24-.7,4.85-1.06,4.49-1,8.97-2.01,13.46-2.99,2.07-.45,4.13-.89,6.2-1.33,3.82-.81,7.65-1.53,11.49-2.23,3.23-.59,6.48-1.39,9.74-1.78.28-.03.59-.06.81.12.27.21.29.63.13.94-.59,1.11-1.94,2.25-2.87,3.09-7.76,7-15.51,14.01-23.33,20.94-6.57,5.82-13.26,11.5-19.83,17.32-4.03,3.58-8,7.24-11.88,10.99-7.38,7.12-14.83,14.17-21.95,21.54-7.17,7.43-14.05,15.16-20.9,22.89-1.82,2.05-3.25,4.51-4.52,6.96-.73,1.42.55,2.89,1.96,2.72,1.45-.18,2.62-1.28,3.08-2.64.27-.81.14-1.67.37-2.5.24-.9.68-1.75,1.23-2.51.82-1.15,1.93-1.95,2.85-2.99s1.74-2.06,2.64-3.06c2.01-2.24,4.02-4.47,6.04-6.7,4.03-4.46,8.09-8.9,12.24-13.25,1.41-1.48,2.83-2.95,4.26-4.4,12.53-12.75,26.06-24.57,39.44-36.41,10.67-9.44,21.35-18.86,31.98-28.34,1.79-1.59,3.41-3.38,5.31-4.84,2.58-1.98,6.21-2.6,9.34-3.35,2.72-.65,5.47-1.16,8.24-1.54.41-.06,1.5-.4,1.87-.17.59.38-.13.97-.41,1.33-4.68,6.05-9.67,11.9-14.71,17.64-4.58,5.21-9.21,10.39-14.07,15.35-2.48,2.53-4.81,5.21-7.53,7.48-1.37,1.14-2.83,2.17-4.42,2.99-.81.42-1.65.78-2.52,1.08-.81.28-1.68.35-2.23,1.08-.04.06-.08.11-.12.17-.2.33.96.84,1.15.86.53.07,1.12-.21,1.63-.33,1.29-.31,2.61-.65,3.73-1.39,2.59-1.69,4.9-3.83,7.25-5.86,3.01-2.6,6.09-5.15,8.88-7.99,3.16-3.21,6.05-6.7,9.02-10.09,5.36-6.1,10.64-12.27,16.09-18.29,1.89-2.09,3.97-4.19,6.37-5.6,1.91-1.12,4.41-1.3,6.67-1.71,6.94-1.26,13.88-2.46,20.82-3.63,11.17-1.9,22.33-3.8,33.51-5.61,5.58-.91,11.2-1.61,16.8-2.41,6.82-.98,13.63-2.07,20.46-2.91,4.56-.57,9.12-1.08,13.69-1.58,5.18-.57,10.36-1.22,15.55-1.62.82-.06,1.65-.11,2.47.02.07.01.13.03.19.05.17.07.31.21.33.39.01.11-.03.22-.07.33-.41,1.09-.99,2.21-1.26,3.34-.14.58-.31,1.37-.18,1.95.28,1.23,1.58,1.74,2.63,2.14.19.07.42.11.59,0,.15-.09.23-.26.3-.43.32-.83.46-1.71.59-2.58.06-.43.16-.85.22-1.28.05-.36.04-.72.13-1.08.36-1.44,1.51-2.61,2.81-3.26,1.66-.83,3.55-.97,5.4-1.11,1.12,0,2.27-.16,3.39-.25s2.31-.17,3.46-.25c2.31-.17,4.61-.33,6.92-.5,17.83-1.29,36.02-2.66,53.99-3.99,9.09-.68,18.19-1.44,27.28-2.04,8.19-.53,16.38-1.08,24.58-1.58.9-.06,1.94-.04,2.77-.44.36-.17.84-.54.57-1.01s-1.25-.5-1.97-.47ZM250.23,103.24c1.08-2.42,3.04-4.61,4.48-6.76,4.08-6.05,8.14-12.11,12.23-18.16.23-.33.67-.51,1.02-.76-.03.44-.01.92-.11,1.32-.9,3.91-10.65,17.76-13.42,21.39-1.32,1.48-2.79,3.88-4.75,4.54.14-.54.33-1.06.56-1.57ZM242.42,59.13c2.19-2.23,4.46-4.38,6.61-6.66,4.22-4.48,8.36-9.05,12.58-13.54,4.01-4.28,8.07-8.51,12.12-12.74,3.91-4.09,7.68-8.32,11.8-12.18,3.62-3.38,7.52-6.52,11.53-9.43,1.19-.86,2.75-1.93,3.61-.18,1.14,2.34.94,4.94-.3,7.19-2,3.63-5.11,6.67-7.95,9.64-3.78,3.96-7.76,7.72-11.92,11.27-2.19,1.86-4.43,3.67-6.71,5.41s-4.86,3.32-7.14,5.14c-4.62,3.69-9.54,7.08-14.34,10.55-.89.64-1.78,1.29-2.67,1.93-2.12,1.53-4.39,2.87-6.61,4.27-.3.19-.7.23-1.06.33.15-.33.22-.74.45-.99ZM161.13,134.93c-1.83,1.57-3.8,2.92-6.28,3.8-2.76.98-5.67,1.48-8.57,1.9s-5.67,1.2-8.48,1.77c-6.02,1.22-12.03,2.45-18.05,3.69-2.71.56-5.41,1.12-8.12,1.69-10.48,2.19-20.95,4.49-31.41,6.81-4.39.97-8.77,2.05-13.15,3.07-2.21.52-4.43,1.02-6.65,1.5-.53.11-1.07.23-1.6.34-.31.06-1.33.45-1.6.3-.89-.51,1.04-1.2,1.35-1.35,8.18-3.98,16.39-7.89,24.6-11.8l6.62-3.15c10.99-5.23,21.99-10.43,32.96-15.71,2.33-1.12,4.65-2.24,6.97-3.37,10.14-4.92,20.17-10.06,30.24-15.13,5.05-2.54,10.09-5.1,15.1-7.72,5.24-2.75,10.43-5.48,15.52-8.48s10.36-5.97,15.64-8.79c2.16-1.15,4.32-2.29,6.5-3.4.97-.5,1.92-1.02,2.86-1.58.38-.22,3.06-1.54,3.06-1.9.46-.3.92-.6,1.38-.91.11-.07.25-.15.38-.11.13.04.2.19.23.33.18.97-.96,1.7-1.55,2.29-.82.84-1.64,1.68-2.46,2.51-4.26,4.37-8.61,8.63-12.96,12.92-8.22,8.1-16.24,16.3-24.9,23.93-4.44,3.92-8.79,7.95-13.02,12.1-1.58,1.55-3.05,3.08-4.64,4.45ZM231.54,124.52c-9.26,1.32-18.49,2.78-27.71,4.36-2.55.44-5.08,1-7.61,1.58-2.31.53-4.94,1.59-7.32,1.44-.21-.01-.44-.04-.58-.2-.21-.23-.11-.6.06-.85.9-1.28,2.03-2.26,3.2-3.28,1.56-1.48,3.12-2.97,4.69-4.45,2.43-2.3,4.85-4.61,7.31-6.88,1.9-1.76,3.91-4.06,6.66-4.32,1.2-.11,2.39.2,3.59.25,1.74.07,3.47-.39,5.21-.46,1.33-.05,2.76.21,3.8.97.54.4.64,1.17.26,1.73-.89,1.32-1.83,2.8-3.18,3.56-3.87,2.17-8.03,3.84-12.1,5.66-.94.41-1.86.8-2.27-.9-.51-2.09-2.45-2.5-4.07-1.08-.92.81-1.89,1.57-2.76,2.43-.44.44-.72,1.05-.72,1.06-.26,2.57,1.14,3.27,2.49,3.1,3.41-.44,6.86-.97,10.14-1.97,3.03-.93,5.83-2.57,8.78-3.79.48-.2,1.45-.02,1.78.35,2,2.2,4.29,1.83,6.52.73,2.54-1.25,4.94-2.78,7.43-4.15.32-.18.76-.14,1.15-.2.01.38.05.76.03,1.14-.15,3.05-2.1,3.77-4.79,4.16ZM229.54,118.45c-.41.13-.94-.09-1.42-.15.12-.42.1-.99.38-1.23,4.1-3.6,7.35-8.29,12.86-10.09.49-.16,1-.29,1.3-.38h1.15c-.11.31-.2.62-.33.92-2.79,6-7.94,9.02-13.94,10.93Z"/>
        <path class="cls-1" d="M362.67,93.09c-.04-.28.09-.59.21-.86.91-1.99,2.18-3.77,3.59-5.44.36-.43,4.23-5.33,4.74-3.98.06.16.01.35-.05.51-.4,1.13-1.08,1.93-1.85,2.8-.86.97-1.56,2.09-2.35,3.11-.74.96-1.49,1.91-2.23,2.87-.31.39-1.37,2.3-1.98,1.23-.04-.08-.07-.16-.08-.24ZM376.04,77.71c.05-.03.11-.05.16-.07.59-.15,1.49.47,1.92.81,3.74,2.93,4.41,8.46,1.59,12.54-1.34,1.94-3.08,3.56-5.08,4.81s-4.44,2.51-6.71,2.89c-1.34.23-2.82,0-3.83-.9-.73-.66,5.66-7.43,6.17-8.19,1.78-2.6,5.22-4.71,5.01-8.21-.04-.68-.13-1.36-.04-2.04.06-.48.3-1.37.8-1.65Z"/>
        <path class="cls-1" d="M316.64,93.4c1.2-.78,2.36-1.56,3.5-2.41.41-.3.48-.88.2-1.29-.66-.95-1.35-1.76-2.74-1.42-.66.16-1.23.54-1.78.92-.49.34-1.06.6-1.57.92-1.16.72-2.28,1.49-3.38,2.3-2.19,1.61-4.26,3.38-6.24,5.23-1.73,1.62-3.4,3.31-5.03,5.03-1.27,1.34-2.1,3.46-.72,5.27,1.23,1.61,3.08,2.03,4.91.89,1.46-.91,2.15-.32,3.23.76.37.37.96.51,1.61.6,1.28.17,2.46-1.01,2.09-2.28-.48-1.62.08-2.48,1.27-3.65,1.53-1.51,2.95-3.14,4.33-4.79.69-.83,1.37-1.67,2.04-2.51.6-.75,1.2-1.42,1.17-2.44,0-.21-.04-.43-.15-.61-.39-.64-2.08-.43-2.72-.52ZM305.78,104.06c-.29.4-1.15.37-1.75.54.18-.46.25-1.03.56-1.37,1.43-1.59,2.93-3.12,4.41-4.67.11.08.22.16.33.23-1.17,1.77-2.28,3.58-3.55,5.27Z"/>
        <path class="cls-1" d="M274.95,111.76c1.36-3.59,2.63-7.01,3.97-10.4.45-1.14.93-2.33,1.7-3.25.49-.58,1.53-.68,2.33-.99.24.93.9,2,.64,2.76-.9,2.62-2.13,5.13-3.2,7.69-.15.35-.08.8-.11,1.2.44-.06.96,0,1.29-.21.86-.55,1.72-1.14,2.42-1.86,2.46-2.51,4.77-5.18,7.33-7.57.93-.87,2.4-1.21,3.68-1.61.28-.09,1.02.52,1.13.92.11.4-.2,1.06-.53,1.4-3.42,3.47-6.87,6.9-10.32,10.33-1.49,1.48-2.85,3.16-4.55,4.34-1.05.74-2.9,1.32-3.89.87-.96-.43-1.27-2.28-1.91-3.61Z"/>
        <path class="cls-1" d="M349.7,86.7c.06,0,.11,0,.17.02.32.06.6.25.84.46.33.28.65.63.75,1.05.15.6-.15,1.24-.58,1.69s-1,.74-1.52,1.07c-1.04.65-1.81,1.77-2.54,2.74-.91,1.2-1.71,2.49-2.51,3.77-1.69,2.67-3.22,5.46-4.56,8.32-.15.33-.31.67-.58.92-.82.75-1.71-.25-1.99-1-.83-2.15.23-3.7,1.26-5.48,1.34-2.33,2.81-4.59,4.29-6.82,1.67-2.52,3.29-4.68,5.84-6.36.34-.23.75-.41,1.15-.39Z"/>
      </g>
      <path class="cls-1" d="M357.27,75.57s-3.85.92-2.74,2.05,3.7.91,3.93.32.85-2,.22-2.37c-.2-.12-1.41,0-1.41,0Z"/>
    </g>
  </g>
</svg>