<svg xmlns="http://www.w3.org/2000/svg" width="160" height="111" viewBox="0 0 160 111" fill="none">
    <path fill-rule="evenodd" clip-rule="evenodd" d="M81.2764 18.6587C76.5013 18.6587 72.6312 22.6215 72.6312 27.511C72.6312 32.3995 76.5013 36.3633 81.2764 36.3633C86.0511 36.3633 89.9217 32.3995 89.9217 27.511C89.9217 22.6215 86.0511 18.6587 81.2764 18.6587ZM81.1418 48.5981C79.2993 48.5981 77.8051 50.1275 77.8051 52.0146C77.8051 53.9008 79.2993 55.4307 81.1418 55.4307C82.9847 55.4307 84.478 53.9008 84.478 52.0146C84.478 50.1275 82.9847 48.5981 81.1418 48.5981ZM101.941 42.374C103.785 42.374 105.278 40.845 105.278 38.9579C105.278 37.0708 103.785 35.5413 101.941 35.5413C100.099 35.5413 98.6055 37.0708 98.6055 38.9579C98.6055 40.845 100.099 42.374 101.941 42.374ZM97.6562 14.883C97.6562 16.7696 99.1494 18.2991 100.992 18.2991C102.835 18.2991 104.329 16.7696 104.329 14.883C104.329 12.9959 102.835 11.4664 100.992 11.4664C99.1494 11.4664 97.6562 12.9959 97.6562 14.883ZM80.91 6.83319C82.7525 6.83319 84.2462 5.30369 84.2462 3.41708C84.2462 1.53047 82.7525 0 80.91 0C79.067 0 77.5734 1.53047 77.5734 3.41708C77.5734 5.30369 79.067 6.83319 80.91 6.83319ZM63.855 15.8365C63.855 13.9494 62.3614 12.42 60.5184 12.42C58.6759 12.42 57.1817 13.9494 57.1817 15.8365C57.1817 17.7236 58.6759 19.2526 60.5184 19.2526C62.3614 19.2526 63.855 17.7236 63.855 15.8365ZM53.6776 24.6231C52.0949 24.6231 50.8115 25.9372 50.8115 27.5572C50.8115 29.1783 52.0949 30.4914 53.6776 30.4914C55.2603 30.4914 56.5436 29.1783 56.5436 27.5572C56.5436 25.9372 55.2603 24.6231 53.6776 24.6231ZM67.4544 6.23973C68.9167 6.23973 70.102 5.02598 70.102 3.52868C70.102 2.03138 68.9167 0.818091 67.4544 0.818091C65.9926 0.818091 64.8077 2.03138 64.8077 3.52868C64.8077 5.02598 65.9926 6.23973 67.4544 6.23973ZM94.7187 6.39904C96.2652 6.39904 97.5177 5.11612 97.5177 3.534C97.5177 1.95096 96.2652 0.668046 94.7187 0.668046C93.1736 0.668046 91.9207 1.95096 91.9207 3.534C91.9207 5.11612 93.1736 6.39904 94.7187 6.39904ZM110.861 27.8462C110.861 26.2953 109.634 25.0387 108.12 25.0387C106.605 25.0387 105.378 26.2953 105.378 27.8462C105.378 29.3966 106.605 30.6537 108.12 30.6537C109.634 30.6537 110.861 29.3966 110.861 27.8462ZM94.7097 49.0712C93.2402 49.0712 92.0492 50.2908 92.0492 51.7954C92.0492 53.3 93.2402 54.5196 94.7097 54.5196C96.1791 54.5196 97.3702 53.3 97.3702 51.7954C97.3702 50.2908 96.1791 49.0712 94.7097 49.0712ZM67.3916 48.9771C65.9036 48.9771 64.6983 50.2118 64.6983 51.7349C64.6983 53.2581 65.9036 54.4937 67.3916 54.4937C68.8791 54.4937 70.0849 53.2581 70.0849 51.7349C70.0849 50.2118 68.8791 48.9771 67.3916 48.9771ZM63.8812 39.8627C63.8812 37.976 62.3871 36.4466 60.545 36.4466C58.7021 36.4466 57.2089 37.976 57.2089 39.8627C57.2089 41.7503 58.7021 43.2793 60.545 43.2793C62.3871 43.2793 63.8812 41.7503 63.8812 39.8627ZM72.6678 38.2299C70.4075 38.2299 68.5755 40.1063 68.5755 42.4207C68.5755 44.7352 70.4075 46.6115 72.6678 46.6115C74.9286 46.6115 76.7601 44.7352 76.7601 42.4207C76.7601 40.1063 74.9286 38.2299 72.6678 38.2299ZM64.3852 31.8504C66.6459 31.8504 68.4784 29.9745 68.4784 27.6601C68.4784 25.3457 66.6459 23.4702 64.3852 23.4702C62.1258 23.4702 60.2929 25.3457 60.2929 27.6601C60.2929 29.9745 62.1258 31.8504 64.3852 31.8504ZM72.664 8.88546C70.4037 8.88546 68.5707 10.7618 68.5707 13.0758C68.5707 15.3902 70.4037 17.2666 72.664 17.2666C74.9248 17.2666 76.7563 15.3902 76.7563 13.0758C76.7563 10.7618 74.9248 8.88546 72.664 8.88546ZM89.284 17.1828C91.5448 17.1828 93.3764 15.3064 93.3764 12.992C93.3764 10.6776 91.5448 8.80115 89.284 8.80115C87.0233 8.80115 85.1912 10.6776 85.1912 12.992C85.1912 15.3064 87.0233 17.1828 89.284 17.1828ZM101.685 27.8145C101.685 25.5001 99.8532 23.6242 97.5929 23.6242C95.3321 23.6242 93.4996 25.5001 93.4996 27.8145C93.4996 30.1284 95.3321 32.0049 97.5929 32.0049C99.8532 32.0049 101.685 30.1284 101.685 27.8145ZM88.8458 38.4063C86.5855 38.4063 84.753 40.2827 84.753 42.5966C84.753 44.9111 86.5855 46.7874 88.8458 46.7874C91.1061 46.7874 92.9381 44.9111 92.9381 42.5966C92.9381 40.2827 91.1061 38.4063 88.8458 38.4063Z" fill="#050109"/>
    <path fill-rule="evenodd" clip-rule="evenodd" d="M0 76.244V92.4011C0 93.6981 2.22582 93.6443 2.22582 92.4011V76.244C2.22582 75.5783 1.66332 75.2407 1.10432 75.2407C0.550808 75.2407 0 75.5718 0 76.244Z" fill="#050109"/>
    <path fill-rule="evenodd" clip-rule="evenodd" d="M8.6033 81.8907V80.2157C8.6033 78.919 6.46777 78.9455 6.46777 80.1887V92.2935C6.46777 92.8876 6.91222 93.239 7.595 93.239C8.27727 93.239 8.6629 92.8876 8.6629 92.2935V86.0245C8.6629 83.0798 11.3628 80.9181 14.2407 80.9181C16.6437 80.9181 18.8392 82.6471 18.8392 85.1329V92.2935C18.8392 92.8876 19.2836 93.239 19.937 93.239C20.6192 93.239 21.0046 92.8876 21.0046 92.2935V85.1329C21.0046 81.2428 17.7114 79.0811 14.2701 79.0811C11.9561 79.0811 9.67148 79.918 8.6033 81.8907Z" fill="#050109"/>
    <path fill-rule="evenodd" clip-rule="evenodd" d="M26.4642 76.1899V79.3244H24.5061C23.2004 79.3244 23.1114 81.0267 24.5061 81.0267H26.4642V88.3217C26.4642 90.8879 27.3244 93.2658 30.8849 93.2658C31.6861 93.2658 32.4274 93.1852 33.1692 92.8065C34.5044 92.1309 33.5252 90.537 32.2791 91.1856C31.9824 91.3477 31.3296 91.4825 30.8849 91.4825C28.8672 91.4825 28.6002 89.8614 28.6002 88.3217V81.0267H31.8341C33.1692 81.0267 33.1692 79.3244 31.8341 79.3244H28.6002V76.1899C28.6002 75.552 28.0606 75.2273 27.5239 75.2275C26.9924 75.2275 26.4642 75.5453 26.4642 76.1899Z" fill="#050109"/>
    <path fill-rule="evenodd" clip-rule="evenodd" d="M41.3575 81.1614C42.3664 80.8915 43.5831 80.8915 44.562 81.1346H44.5318C46.8458 81.6749 48.3892 83.4309 48.5965 85.7282H37.4114C37.5897 83.5392 38.9842 81.7287 41.3575 81.1614ZM40.7047 79.3781C35.1867 80.7834 33.7919 86.9979 36.9967 90.834C38.3912 92.4279 40.7047 93.2391 43.0187 93.2391C44.9474 93.2656 46.9353 92.7794 48.2996 91.6177C49.4568 90.5369 47.914 89.4292 46.876 90.2937C45.7186 91.1044 44.2945 91.4286 42.9302 91.4286C39.9633 91.4286 37.8863 89.5911 37.5007 87.3756H49.2195C50.4357 87.3756 50.7326 86.7275 50.6735 86.1329V86.1602C50.6137 82.7015 48.5375 80.2158 45.1852 79.3781H45.1553C44.4145 79.1994 43.6359 79.1045 42.8658 79.1045C42.1236 79.1045 41.3888 79.1927 40.7047 79.3781Z" fill="#050109"/>
    <path fill-rule="evenodd" clip-rule="evenodd" d="M56.4885 81.5664V80.2156C56.4885 78.9188 54.3823 79.0264 54.3823 80.2156V92.185C54.3823 92.7524 54.8267 93.1306 55.4796 93.1306C56.0435 93.1306 56.5478 92.7524 56.5478 92.185V86.0789C56.5478 83.3501 57.8529 81.1344 60.9088 81.1344C61.5914 81.1344 62.0361 80.8102 62.0361 80.2156C62.0361 79.5942 61.5914 79.2695 60.9088 79.2695C59.2178 79.2695 57.4376 79.7566 56.4885 81.5664Z" fill="#050109"/>
    <path fill-rule="evenodd" clip-rule="evenodd" d="M74.7045 81.8907V80.2157C74.7045 78.919 72.5679 78.9455 72.5679 80.1887V92.2935C72.5679 92.8876 73.0134 93.239 73.6954 93.239C74.3777 93.239 74.7635 92.8876 74.7635 92.2935V86.0245C74.7635 83.0798 77.4629 80.9181 80.3408 80.9181C82.7438 80.9181 84.9393 82.6471 84.9393 85.1329V92.2935C84.9393 92.8876 85.3847 93.239 86.0376 93.239C86.7199 93.239 87.1052 92.8876 87.1052 92.2935V85.1329C87.1052 81.2428 83.812 79.0811 80.3708 79.0811C78.0559 79.0811 75.7718 79.918 74.7045 81.8907Z" fill="#050109"/>
    <path fill-rule="evenodd" clip-rule="evenodd" d="M95.1167 90.5098C93.5149 89.2939 92.8917 87.673 92.951 85.9165C92.9806 85.2141 93.129 84.4847 93.3959 83.9171C94.2268 82.0258 96.3623 80.9992 98.4689 81.0265C101.139 81.1346 103.186 82.5126 103.186 85.187V87.3215C103.038 90.0233 100.902 91.5366 98.1721 91.5366C97.0748 91.4556 96.0069 91.1309 95.1167 90.5098ZM95.3246 79.675L95.354 79.6484C92.506 80.6478 90.844 83.1609 90.785 85.8897C90.6965 88.5379 91.8529 90.834 94.1079 92.239C95.354 93.0497 96.9558 93.4007 98.38 93.4007C100.131 93.4007 102.327 92.5089 103.186 90.9418V92.239C103.186 92.8336 103.572 93.2118 104.255 93.2118C104.907 93.2118 105.352 92.8336 105.352 92.239V80.243C105.352 79.675 104.907 79.2697 104.255 79.2697C103.572 79.2697 103.186 79.675 103.186 80.243V81.2696C102.119 79.675 100.19 79.1887 98.4989 79.1622C98.4072 79.1597 98.3163 79.1587 98.2257 79.1587C97.1983 79.1587 96.224 79.3027 95.3246 79.675Z" fill="#050109"/>
    <path fill-rule="evenodd" clip-rule="evenodd" d="M111.137 76.1899V79.3244H109.179C107.873 79.3244 107.784 81.0267 109.179 81.0267H111.137V88.3217C111.137 90.8879 111.997 93.2658 115.558 93.2658C116.359 93.2658 117.1 93.1852 117.842 92.8065C119.177 92.1309 118.198 90.537 116.952 91.1856C116.655 91.3477 116.003 91.4825 115.558 91.4825C113.54 91.4825 113.273 89.8614 113.273 88.3217V81.0267H116.507C117.842 81.0267 117.842 79.3244 116.507 79.3244H113.273V76.1899C113.273 75.552 112.734 75.2273 112.197 75.2275C111.665 75.2275 111.137 75.5453 111.137 76.1899Z" fill="#050109"/>
    <path fill-rule="evenodd" clip-rule="evenodd" d="M121.165 80.2159V92.3742C121.165 93.5361 123.331 93.5634 123.331 92.3742V80.1889C123.331 79.6146 122.802 79.3306 122.267 79.3311C121.72 79.3311 121.165 79.628 121.165 80.2159ZM121.136 76.0816V77.2975C121.136 78.5404 123.361 78.5136 123.361 77.2975V76.0816C123.361 75.4602 122.804 75.1499 122.248 75.1499C121.692 75.1499 121.136 75.4602 121.136 76.0816Z" fill="#050109"/>
    <path fill-rule="evenodd" clip-rule="evenodd" d="M129.976 89.6988C129.086 88.7536 128.671 87.4834 128.671 86.2682C128.671 83.8358 130.125 81.7284 132.617 81.1343C133.062 81.0262 133.625 80.9452 134.189 80.9452C134.753 80.9452 135.346 81.0262 135.821 81.1343C138.343 81.7284 139.796 83.8631 139.796 86.322C139.796 87.4834 139.322 88.7803 138.491 89.6988C137.453 90.7795 135.821 91.4821 134.219 91.4821C132.587 91.4821 131.015 90.8337 129.976 89.6988ZM131.964 79.351C128.7 80.1885 126.772 82.7012 126.475 85.7001C126.386 87.727 126.95 89.4557 128.285 90.8875C129.739 92.4819 131.846 93.3191 134.219 93.3191C136.563 93.3191 138.699 92.4819 140.152 90.8875C141.458 89.4557 142.051 87.727 141.933 85.7001C141.666 82.6744 139.648 80.1885 136.414 79.351C135.643 79.1619 134.931 79.1074 134.219 79.1074C133.477 79.1074 132.676 79.1619 131.964 79.351Z" fill="#050109"/>
    <path fill-rule="evenodd" clip-rule="evenodd" d="M147.598 81.8907V80.2157C147.598 78.919 145.463 78.9455 145.463 80.1887V92.2935C145.463 92.8876 145.907 93.239 146.59 93.239C147.273 93.239 147.658 92.8876 147.658 92.2935V86.0245C147.658 83.0798 150.358 80.9181 153.236 80.9181C155.639 80.9181 157.834 82.6471 157.834 85.1329V92.2935C157.834 92.8876 158.279 93.239 158.932 93.239C159.614 93.239 160 92.8876 160 92.2935V85.1329C160 81.2428 156.707 79.0811 153.266 79.0811C150.951 79.0811 148.667 79.918 147.598 81.8907Z" fill="#050109"/>
    <path fill-rule="evenodd" clip-rule="evenodd" d="M40.8467 107.791C40.7313 107.783 40.6393 107.742 40.5688 107.668C40.4982 107.594 40.4619 107.505 40.4619 107.399V100.694C40.4619 100.581 40.5047 100.49 40.588 100.42C40.6714 100.35 40.7697 100.315 40.8852 100.315H45.7272C45.8426 100.315 45.9409 100.35 46.0201 100.422C46.0991 100.494 46.1376 100.585 46.1376 100.694C46.1376 100.799 46.0991 100.889 46.0201 100.963C45.9409 101.037 45.8426 101.074 45.7272 101.074H41.2956V103.585H44.669C44.7887 103.582 44.8892 103.619 44.9704 103.696C45.0517 103.774 45.0923 103.866 45.0923 103.971C45.0923 104.076 45.0517 104.164 44.9704 104.236C44.8892 104.308 44.7887 104.345 44.669 104.345H41.2956V107.031H45.7272C45.8426 107.031 45.9409 107.068 46.0201 107.142C46.0991 107.216 46.1376 107.306 46.1376 107.411C46.1376 107.52 46.0991 107.612 46.0201 107.686C45.9409 107.76 45.8426 107.795 45.7272 107.791H40.8467ZM47.7089 102.727C47.7089 102.614 47.7345 102.522 47.7837 102.452C47.8329 102.382 47.9162 102.347 48.036 102.347C48.1471 102.347 48.2348 102.384 48.2968 102.456C48.3588 102.528 48.41 102.622 48.4528 102.735L48.5041 103.453C48.6195 103.282 48.7542 103.124 48.9082 102.982C49.0621 102.84 49.2331 102.717 49.4191 102.614C49.6051 102.511 49.806 102.431 50.0219 102.374C50.2378 102.318 50.4644 102.289 50.7038 102.289C51.1058 102.289 51.4628 102.359 51.7749 102.497C52.087 102.635 52.3499 102.824 52.5616 103.066C52.7732 103.309 52.9335 103.591 53.0447 103.915C53.1558 104.238 53.2114 104.584 53.2114 104.954V107.423C53.2114 107.532 53.1729 107.621 53.096 107.693C53.019 107.765 52.9207 107.802 52.801 107.802C52.6855 107.802 52.5872 107.765 52.5038 107.693C52.4205 107.621 52.3777 107.532 52.3777 107.423V104.977C52.3777 104.713 52.3392 104.464 52.2601 104.23C52.181 103.996 52.0656 103.79 51.916 103.615C51.7663 103.439 51.5803 103.301 51.3559 103.2C51.1314 103.099 50.8749 103.048 50.5884 103.048C50.2977 103.048 50.0283 103.103 49.7782 103.214C49.5281 103.325 49.3122 103.473 49.1305 103.657C48.9488 103.842 48.8055 104.059 48.7008 104.304C48.596 104.549 48.5426 104.806 48.5426 105.075V107.394C48.5426 107.507 48.5062 107.6 48.4315 107.676C48.3566 107.752 48.2561 107.791 48.1322 107.791C48.0124 107.791 47.9119 107.752 47.8307 107.676C47.7495 107.6 47.7089 107.507 47.7089 107.394V102.727ZM54.6287 105.081C54.6287 104.695 54.71 104.331 54.8703 103.99C55.0306 103.65 55.2487 103.354 55.5266 103.103C55.8066 102.852 56.1316 102.653 56.5036 102.507C56.8755 102.361 57.271 102.289 57.6921 102.289C58.1154 102.289 58.5109 102.363 58.8829 102.509C59.2527 102.655 59.5755 102.853 59.8513 103.105C60.127 103.356 60.3451 103.652 60.5054 103.992C60.6657 104.333 60.747 104.697 60.747 105.083C60.747 105.379 60.6999 105.661 60.6038 105.93C60.5076 106.2 60.3729 106.447 60.2018 106.673C60.3686 106.841 60.4905 107.033 60.5674 107.251C60.6444 107.47 60.6828 107.705 60.6828 107.958C60.6828 108.281 60.623 108.568 60.5033 108.819C60.3835 109.068 60.2232 109.278 60.0223 109.449C59.8213 109.621 59.5926 109.751 59.3339 109.841C59.0753 109.93 58.8081 109.975 58.5344 109.975C58.4318 109.975 58.3228 109.969 58.2073 109.958C58.0919 109.946 57.9743 109.932 57.8546 109.919C57.7349 109.905 57.6173 109.895 57.4997 109.888C57.3822 109.88 57.2689 109.878 57.162 109.882C57.0423 109.89 56.914 109.911 56.7772 109.946C56.6403 109.981 56.5164 110.037 56.4052 110.115C56.3154 110.185 56.2171 110.213 56.1081 110.197C55.9991 110.182 55.9071 110.141 55.8344 110.074C55.7617 110.008 55.7211 109.925 55.7126 109.825C55.704 109.726 55.7532 109.629 55.8601 109.531C55.967 109.446 56.1081 109.376 56.2812 109.323C56.4544 109.27 56.619 109.231 56.7772 109.204C57.0294 109.173 57.2795 109.167 57.5254 109.187C57.7713 109.206 58.015 109.216 58.2586 109.216C58.7546 109.216 59.1437 109.107 59.4259 108.887C59.708 108.669 59.8491 108.357 59.8491 107.954C59.8491 107.857 59.8427 107.771 59.8278 107.699C59.8128 107.627 59.7935 107.563 59.7722 107.507C59.7508 107.45 59.7251 107.401 59.6974 107.36C59.6696 107.32 59.6418 107.281 59.6118 107.242C59.351 107.44 59.0582 107.592 58.7311 107.699C58.4062 107.806 58.0598 107.861 57.6921 107.861C57.2731 107.861 56.8755 107.787 56.5036 107.641C56.1316 107.495 55.8066 107.296 55.5288 107.045C55.2487 106.794 55.0306 106.5 54.8703 106.161C54.71 105.822 54.6287 105.462 54.6287 105.081ZM55.4625 105.077C55.4625 105.353 55.5202 105.614 55.6356 105.856C55.7511 106.099 55.9093 106.313 56.1102 106.494C56.3112 106.677 56.5485 106.823 56.8199 106.93C57.0914 107.037 57.38 107.09 57.6879 107.09C58 107.09 58.2907 107.037 58.5601 106.93C58.8294 106.823 59.0646 106.677 59.2634 106.494C59.4622 106.313 59.6182 106.099 59.7315 105.856C59.8448 105.614 59.9004 105.353 59.9004 105.077C59.9004 104.798 59.8448 104.534 59.7315 104.288C59.6182 104.041 59.4622 103.825 59.2634 103.64C59.0646 103.455 58.8294 103.311 58.5601 103.206C58.2907 103.101 58 103.048 57.6879 103.048C57.38 103.048 57.0914 103.101 56.8199 103.206C56.5485 103.311 56.3112 103.455 56.1102 103.64C55.9093 103.825 55.7511 104.041 55.6356 104.288C55.5202 104.534 55.4625 104.798 55.4625 105.077ZM63.3507 107.405C63.3507 107.514 63.3101 107.606 63.2289 107.68C63.1476 107.754 63.0515 107.791 62.9403 107.791C62.8249 107.791 62.7265 107.754 62.6432 107.68C62.5598 107.606 62.517 107.514 62.517 107.405V100.642C62.517 100.533 62.5598 100.441 62.6432 100.367C62.7265 100.293 62.8249 100.256 62.9403 100.256C63.06 100.256 63.1584 100.293 63.2353 100.367C63.3123 100.441 63.3507 100.533 63.3507 100.642V107.405ZM65.403 101.152C65.403 101.02 65.4522 100.909 65.5505 100.821C65.6467 100.733 65.7643 100.689 65.9011 100.689C66.04 100.689 66.1598 100.733 66.2559 100.821C66.3543 100.909 66.4035 101.02 66.4035 101.152C66.4035 101.278 66.3543 101.386 66.2559 101.477C66.1598 101.567 66.04 101.611 65.9011 101.611C65.8327 101.611 65.7664 101.598 65.7065 101.572C65.6445 101.547 65.5911 101.514 65.5462 101.473C65.5013 101.432 65.4671 101.384 65.4415 101.329C65.4158 101.275 65.403 101.216 65.403 101.152ZM66.3137 107.405C66.3137 107.514 66.273 107.606 66.1918 107.68C66.1106 107.754 66.0144 107.791 65.9032 107.791C65.7878 107.791 65.6894 107.754 65.6061 107.68C65.5227 107.606 65.4799 107.514 65.4799 107.405V102.744C65.4799 102.639 65.5227 102.55 65.6061 102.476C65.6894 102.402 65.7878 102.365 65.9032 102.365C66.0229 102.365 66.1213 102.402 66.1982 102.476C66.2752 102.55 66.3137 102.639 66.3137 102.744V107.405ZM69.8131 105.26C69.6186 105.198 69.4262 105.125 69.2295 105.046C69.035 104.966 68.8597 104.869 68.7036 104.754C68.5476 104.639 68.4194 104.501 68.321 104.341C68.2226 104.181 68.1735 103.99 68.1735 103.769C68.1735 103.527 68.2291 103.315 68.3381 103.132C68.4471 102.947 68.5946 102.793 68.7785 102.669C68.9623 102.544 69.1761 102.45 69.4198 102.386C69.6614 102.322 69.9158 102.289 70.183 102.289C70.3668 102.289 70.5507 102.303 70.7324 102.332C70.9141 102.361 71.0851 102.408 71.2433 102.47C71.4036 102.532 71.5469 102.612 71.6751 102.709C71.8034 102.807 71.906 102.922 71.9829 103.054C72.0257 103.132 72.0428 103.208 72.0321 103.284C72.0214 103.36 71.9894 103.422 71.938 103.469C71.8868 103.519 71.8226 103.552 71.7457 103.57C71.6687 103.587 71.5939 103.58 71.5212 103.545C71.3374 103.358 71.1449 103.223 70.9483 103.144C70.7495 103.064 70.5143 103.025 70.2385 103.025C70.0846 103.025 69.9329 103.038 69.7832 103.064C69.6357 103.089 69.5032 103.13 69.3877 103.188C69.2723 103.247 69.1782 103.325 69.1098 103.42C69.0414 103.515 69.0072 103.632 69.0072 103.772C69.0072 103.899 69.0414 104.004 69.1077 104.092C69.1739 104.179 69.2637 104.255 69.3792 104.319C69.4946 104.384 69.6293 104.44 69.7811 104.487C69.9329 104.534 70.0932 104.58 70.2599 104.627C70.5335 104.705 70.7944 104.789 71.0402 104.878C71.2882 104.968 71.5041 105.075 71.6901 105.2C71.8761 105.324 72.0257 105.474 72.1369 105.647C72.248 105.821 72.3036 106.029 72.3036 106.27C72.3036 106.496 72.2502 106.706 72.1433 106.901C72.0364 107.098 71.8889 107.267 71.7008 107.411C71.5126 107.555 71.2925 107.668 71.0381 107.75C70.7837 107.832 70.51 107.873 70.2193 107.873C70.0013 107.873 69.7853 107.853 69.5716 107.814C69.3578 107.775 69.1568 107.717 68.9666 107.639C68.7763 107.561 68.6053 107.46 68.4535 107.337C68.3018 107.215 68.1778 107.068 68.0837 106.897C68.0196 106.784 68.0003 106.683 68.0238 106.595C68.0474 106.508 68.0965 106.442 68.1735 106.397C68.2504 106.352 68.3445 106.336 68.4557 106.35C68.5668 106.364 68.6738 106.416 68.7763 106.506C68.9089 106.704 69.1013 106.858 69.3514 106.969C69.6015 107.08 69.8901 107.137 70.2193 107.137C70.3818 107.137 70.54 107.115 70.6917 107.074C70.8435 107.033 70.9761 106.975 71.0915 106.899C71.207 106.823 71.2989 106.734 71.3673 106.629C71.4357 106.523 71.4699 106.407 71.4699 106.276C71.4699 106.144 71.4207 106.027 71.3224 105.926C71.2241 105.824 71.0958 105.733 70.9376 105.651C70.7773 105.569 70.5998 105.497 70.4032 105.435C70.2065 105.373 70.0098 105.314 69.8131 105.26ZM74.8432 103.506C74.9587 103.329 75.0934 103.163 75.2473 103.015C75.4012 102.865 75.5722 102.737 75.7582 102.63C75.9442 102.523 76.143 102.439 76.3568 102.378C76.5705 102.318 76.7972 102.289 77.0366 102.289C77.4385 102.289 77.8019 102.359 78.1247 102.499C78.4475 102.639 78.7211 102.83 78.9477 103.072C79.1743 103.313 79.3496 103.595 79.4715 103.92C79.5933 104.246 79.6532 104.592 79.6532 104.958V107.411C79.6532 107.52 79.6147 107.61 79.5356 107.682C79.4565 107.754 79.3539 107.791 79.2299 107.791C79.1188 107.791 79.0225 107.754 78.9413 107.682C78.8601 107.61 78.8195 107.52 78.8195 107.411V104.958C78.8195 104.693 78.7724 104.444 78.6784 104.212C78.5843 103.981 78.4518 103.778 78.2808 103.605C78.1119 103.432 77.9066 103.295 77.6694 103.196C77.4342 103.097 77.1713 103.048 76.8869 103.048C76.5962 103.048 76.3269 103.103 76.0832 103.214C75.8373 103.325 75.6214 103.475 75.4397 103.661C75.2558 103.848 75.1126 104.064 75.01 104.31C74.9074 104.555 74.8561 104.812 74.8561 105.081L74.8432 105.087V107.405C74.8432 107.514 74.8048 107.606 74.7257 107.68C74.6466 107.754 74.5482 107.791 74.4328 107.791C74.3173 107.791 74.219 107.754 74.1356 107.68C74.0523 107.606 74.0095 107.514 74.0095 107.405V100.648C74.0095 100.535 74.0523 100.441 74.1356 100.367C74.219 100.293 74.3173 100.256 74.4328 100.256C74.5482 100.256 74.6466 100.293 74.7257 100.367C74.8048 100.441 74.8432 100.535 74.8432 100.648V103.506ZM85.8719 105.26C85.6774 105.198 85.485 105.125 85.2883 105.046C85.0937 104.966 84.9184 104.869 84.7624 104.754C84.6063 104.639 84.4781 104.501 84.3798 104.341C84.2814 104.181 84.2322 103.99 84.2322 103.769C84.2322 103.527 84.2878 103.315 84.3968 103.132C84.5059 102.947 84.6534 102.793 84.8372 102.669C85.021 102.544 85.2348 102.45 85.4785 102.386C85.7201 102.322 85.9745 102.289 86.2417 102.289C86.4255 102.289 86.6094 102.303 86.7911 102.332C86.9728 102.361 87.1439 102.408 87.302 102.47C87.4624 102.532 87.6056 102.612 87.7339 102.709C87.8621 102.807 87.9647 102.922 88.0417 103.054C88.0844 103.132 88.1015 103.208 88.0909 103.284C88.0801 103.36 88.0481 103.422 87.9968 103.469C87.9455 103.519 87.8814 103.552 87.8044 103.57C87.7274 103.587 87.6526 103.58 87.58 103.545C87.3961 103.358 87.2037 103.223 87.007 103.144C86.8082 103.064 86.5731 103.025 86.2973 103.025C86.1434 103.025 85.9916 103.038 85.8419 103.064C85.6945 103.089 85.5619 103.13 85.4465 103.188C85.331 103.247 85.237 103.325 85.1686 103.42C85.1002 103.515 85.0659 103.632 85.0659 103.772C85.0659 103.899 85.1002 104.004 85.1664 104.092C85.2327 104.179 85.3225 104.255 85.4379 104.319C85.5534 104.384 85.688 104.44 85.8398 104.487C85.9916 104.534 86.1519 104.58 86.3187 104.627C86.5923 104.705 86.8531 104.789 87.099 104.878C87.3469 104.968 87.5628 105.075 87.7488 105.2C87.9348 105.324 88.0844 105.474 88.1956 105.647C88.3068 105.821 88.3624 106.029 88.3624 106.27C88.3624 106.496 88.3089 106.706 88.202 106.901C88.0951 107.098 87.9476 107.267 87.7595 107.411C87.5714 107.555 87.3512 107.668 87.0968 107.75C86.8424 107.832 86.5688 107.873 86.2781 107.873C86.06 107.873 85.8441 107.853 85.6303 107.814C85.4165 107.775 85.2156 107.717 85.0253 107.639C84.8351 107.561 84.664 107.46 84.5123 107.337C84.3605 107.215 84.2365 107.068 84.1424 106.897C84.0783 106.784 84.0591 106.683 84.0826 106.595C84.1061 106.508 84.1553 106.442 84.2322 106.397C84.3092 106.352 84.4033 106.336 84.5144 106.35C84.6256 106.364 84.7325 106.416 84.8351 106.506C84.9676 106.704 85.16 106.858 85.4101 106.969C85.6602 107.08 85.9489 107.137 86.2781 107.137C86.4405 107.137 86.5987 107.115 86.7505 107.074C86.9023 107.033 87.0348 106.975 87.1502 106.899C87.2657 106.823 87.3576 106.734 87.426 106.629C87.4944 106.523 87.5287 106.407 87.5287 106.276C87.5287 106.144 87.4795 106.027 87.3811 105.926C87.2828 105.824 87.1545 105.733 86.9963 105.651C86.836 105.569 86.6586 105.497 86.4619 105.435C86.2652 105.373 86.0686 105.314 85.8719 105.26ZM90.4402 105.052C90.4402 105.052 90.436 105.059 90.4274 105.075C90.4274 105.079 90.4298 105.081 90.4316 105.081C90.4339 105.081 90.4339 105.083 90.4339 105.087C90.4339 105.09 90.4363 105.092 90.4404 105.092C90.4404 105.349 90.496 105.599 90.605 105.84C90.714 106.081 90.8637 106.294 91.056 106.479C91.2485 106.664 91.4751 106.813 91.7358 106.926C91.9967 107.039 92.2788 107.098 92.5824 107.102C92.8603 107.105 93.1233 107.065 93.3712 106.981C93.6192 106.897 93.8522 106.769 94.0703 106.593C94.113 106.562 94.16 106.531 94.2092 106.5C94.2584 106.469 94.3097 106.447 94.3653 106.436C94.4209 106.424 94.4786 106.424 94.5385 106.438C94.5983 106.451 94.6624 106.487 94.7308 106.541C94.8249 106.615 94.8698 106.707 94.8655 106.818C94.8613 106.928 94.81 107.03 94.7116 107.119C94.4551 107.355 94.1451 107.54 93.7817 107.672C93.4183 107.807 93.042 107.873 92.653 107.873C92.2339 107.873 91.8406 107.801 91.4708 107.657C91.1009 107.513 90.7781 107.316 90.5024 107.067C90.2266 106.816 90.0085 106.524 89.8482 106.189C89.6879 105.854 89.6067 105.496 89.6067 105.112L89.6195 105.077C89.6153 105.077 89.6131 105.073 89.6131 105.065C89.6131 105.061 89.6108 105.06 89.6067 105.06C89.6067 104.674 89.6879 104.314 89.8482 103.979C90.0085 103.644 90.2266 103.35 90.5024 103.099C90.7781 102.848 91.1009 102.649 91.4708 102.505C91.8406 102.361 92.2339 102.289 92.653 102.289C93.0463 102.289 93.4247 102.351 93.786 102.476C94.1472 102.601 94.4551 102.78 94.7116 103.013C94.81 103.103 94.8612 103.204 94.8655 103.317C94.8697 103.43 94.8249 103.523 94.7308 103.597C94.6624 103.652 94.5983 103.685 94.5385 103.697C94.4786 103.708 94.4209 103.708 94.3653 103.697C94.3097 103.685 94.2584 103.664 94.2092 103.634C94.16 103.605 94.113 103.576 94.0703 103.545C93.8565 103.37 93.6256 103.241 93.3755 103.161C93.1254 103.081 92.8603 103.044 92.5824 103.048C92.2831 103.052 92.0031 103.109 91.7423 103.22C91.4814 103.331 91.2548 103.479 91.0625 103.664C90.87 103.849 90.7183 104.061 90.6071 104.3C90.496 104.54 90.4402 104.791 90.4402 105.052ZM97.4435 103.506C97.5589 103.329 97.6936 103.163 97.8475 103.015C98.0015 102.865 98.1725 102.737 98.3585 102.63C98.5444 102.523 98.7432 102.439 98.957 102.378C99.1708 102.318 99.3974 102.289 99.6368 102.289C100.039 102.289 100.402 102.359 100.725 102.499C101.048 102.639 101.321 102.83 101.548 103.072C101.775 103.313 101.95 103.595 102.072 103.92C102.194 104.246 102.253 104.592 102.253 104.958V107.411C102.253 107.52 102.215 107.61 102.136 107.682C102.057 107.754 101.954 107.791 101.83 107.791C101.719 107.791 101.623 107.754 101.542 107.682C101.46 107.61 101.42 107.52 101.42 107.411V104.958C101.42 104.693 101.373 104.444 101.279 104.212C101.185 103.981 101.052 103.778 100.881 103.605C100.712 103.432 100.507 103.295 100.27 103.196C100.034 103.097 99.7715 103.048 99.4872 103.048C99.1964 103.048 98.9271 103.103 98.6834 103.214C98.4375 103.325 98.2216 103.475 98.0399 103.661C97.8561 103.848 97.7128 104.064 97.6102 104.31C97.5076 104.555 97.4563 104.812 97.4563 105.081L97.4435 105.087V107.405C97.4435 107.514 97.405 107.606 97.3259 107.68C97.2468 107.754 97.1485 107.791 97.0331 107.791C96.9176 107.791 96.8193 107.754 96.7359 107.68C96.6525 107.606 96.6098 107.514 96.6098 107.405V100.648C96.6098 100.535 96.6525 100.441 96.7359 100.367C96.8193 100.293 96.9176 100.256 97.0331 100.256C97.1485 100.256 97.2468 100.293 97.3259 100.367C97.405 100.441 97.4435 100.535 97.4435 100.648V103.506ZM104.562 105.081C104.562 105.357 104.62 105.616 104.735 105.859C104.851 106.103 105.009 106.317 105.21 106.502C105.411 106.687 105.648 106.833 105.92 106.94C106.191 107.047 106.48 107.102 106.788 107.102C107.1 107.102 107.39 107.047 107.66 106.94C107.929 106.833 108.164 106.687 108.363 106.502C108.562 106.317 108.718 106.103 108.831 105.859C108.945 105.616 109 105.357 109 105.081C109 104.8 108.945 104.536 108.831 104.288C108.718 104.041 108.562 103.825 108.363 103.64C108.164 103.455 107.929 103.311 107.66 103.206C107.39 103.101 107.1 103.048 106.788 103.048C106.48 103.048 106.191 103.101 105.92 103.206C105.648 103.311 105.411 103.455 105.21 103.64C105.009 103.825 104.851 104.041 104.735 104.288C104.62 104.536 104.562 104.8 104.562 105.081ZM103.728 105.083C103.728 104.697 103.81 104.335 103.97 103.993C104.13 103.652 104.348 103.356 104.626 103.105C104.906 102.854 105.231 102.655 105.603 102.509C105.975 102.363 106.371 102.289 106.792 102.289C107.215 102.289 107.611 102.363 107.983 102.509C108.352 102.655 108.675 102.854 108.951 103.105C109.227 103.356 109.445 103.652 109.605 103.993C109.765 104.335 109.847 104.697 109.847 105.083C109.847 105.466 109.765 105.827 109.605 106.165C109.445 106.504 109.227 106.8 108.951 107.055C108.675 107.308 108.352 107.507 107.983 107.653C107.611 107.799 107.215 107.873 106.792 107.873C106.371 107.873 105.975 107.799 105.603 107.653C105.231 107.507 104.906 107.308 104.626 107.055C104.348 106.8 104.13 106.504 103.97 106.165C103.81 105.827 103.728 105.466 103.728 105.083ZM111.816 105.081C111.816 105.357 111.873 105.616 111.989 105.859C112.104 106.103 112.262 106.317 112.463 106.502C112.664 106.687 112.902 106.833 113.173 106.94C113.445 107.047 113.733 107.102 114.041 107.102C114.353 107.102 114.644 107.047 114.913 106.94C115.183 106.833 115.418 106.687 115.616 106.502C115.815 106.317 115.971 106.103 116.085 105.859C116.198 105.616 116.254 105.357 116.254 105.081C116.254 104.8 116.198 104.536 116.085 104.288C115.971 104.041 115.815 103.825 115.616 103.64C115.418 103.455 115.183 103.311 114.913 103.206C114.644 103.101 114.353 103.048 114.041 103.048C113.733 103.048 113.445 103.101 113.173 103.206C112.902 103.311 112.664 103.455 112.463 103.64C112.262 103.825 112.104 104.041 111.989 104.288C111.873 104.536 111.816 104.8 111.816 105.081ZM110.982 105.083C110.982 104.697 111.063 104.335 111.223 103.993C111.384 103.652 111.602 103.356 111.88 103.105C112.16 102.854 112.485 102.655 112.857 102.509C113.229 102.363 113.624 102.289 114.045 102.289C114.468 102.289 114.864 102.363 115.236 102.509C115.606 102.655 115.929 102.854 116.204 103.105C116.48 103.356 116.698 103.652 116.858 103.993C117.019 104.335 117.1 104.697 117.1 105.083C117.1 105.466 117.019 105.827 116.858 106.165C116.698 106.504 116.48 106.8 116.204 107.055C115.929 107.308 115.606 107.507 115.236 107.653C114.864 107.799 114.468 107.873 114.045 107.873C113.624 107.873 113.229 107.799 112.857 107.653C112.485 107.507 112.16 107.308 111.88 107.055C111.602 106.8 111.384 106.504 111.223 106.165C111.063 105.827 110.982 105.466 110.982 105.083ZM119.556 107.405C119.556 107.515 119.516 107.606 119.435 107.68C119.353 107.754 119.257 107.791 119.146 107.791C119.03 107.791 118.932 107.754 118.849 107.68C118.765 107.606 118.723 107.515 118.723 107.405V100.642C118.723 100.533 118.765 100.441 118.849 100.368C118.932 100.293 119.03 100.257 119.146 100.257C119.266 100.257 119.364 100.293 119.441 100.368C119.518 100.441 119.556 100.533 119.556 100.642V107.405Z" fill="#050109"/>
</svg>
