<svg width="20" height="20" viewBox="0 0 20 20" fill="none" xmlns="http://www.w3.org/2000/svg">    <path d="M12.4996 6.87334H7.49963C7.3552 6.87325 7.21525 6.82314 7.10359 6.73153C6.99192 6.63992 6.91544 6.51247 6.88713 6.37084L6.26213 3.24584C6.24068 3.13854 6.24777 3.02748 6.2827 2.92378C6.31764 2.82009 6.37918 2.72738 6.46119 2.65493C6.54319 2.58248 6.64278 2.53282 6.74999 2.51094C6.85721 2.48905 6.96829 2.4957 7.07213 2.53021L8.49463 3.00459L9.47963 1.52646C9.54002 1.44551 9.61848 1.37977 9.70875 1.33449C9.79903 1.28921 9.89863 1.26563 9.99963 1.26562C10.1006 1.26562 10.2002 1.28921 10.2905 1.33449C10.3808 1.37977 10.4592 1.44551 10.5196 1.52646L11.5046 3.00459L12.9271 2.53021C13.031 2.4957 13.142 2.48905 13.2493 2.51094C13.3565 2.53282 13.4561 2.58248 13.5381 2.65493C13.6201 2.72738 13.6816 2.82009 13.7166 2.92378C13.7515 3.02748 13.7586 3.13854 13.7371 3.24584L13.1121 6.37084C13.0838 6.51247 13.0073 6.63992 12.8957 6.73153C12.784 6.82314 12.6441 6.87325 12.4996 6.87334ZM8.01213 5.62334H11.9871L12.3009 4.05709L11.4471 4.34146C11.3171 4.38467 11.1764 4.38397 11.0468 4.33949C10.9172 4.295 10.8057 4.20918 10.7296 4.09521L9.99963 3.00021L9.26963 4.09521C9.19344 4.2091 9.082 4.29485 8.9524 4.33933C8.8228 4.38381 8.68219 4.38456 8.55213 4.34146L7.69838 4.05709L8.01213 5.62334Z" fill="#FFCF00"/>    <path d="M13.125 6.875H6.875C6.70924 6.875 6.55027 6.80915 6.43306 6.69194C6.31585 6.57473 6.25 6.41576 6.25 6.25C6.25 6.08424 6.31585 5.92527 6.43306 5.80806C6.55027 5.69085 6.70924 5.625 6.875 5.625H13.125C13.2908 5.625 13.4497 5.69085 13.5669 5.80806C13.6842 5.92527 13.75 6.08424 13.75 6.25C13.75 6.41576 13.6842 6.57473 13.5669 6.69194C13.4497 6.80915 13.2908 6.875 13.125 6.875Z" fill="#FFCF00"/>    <path d="M5.29875 18.75H2.20125C1.94906 18.7497 1.7073 18.6493 1.52898 18.471C1.35066 18.2927 1.25033 18.0509 1.25 17.7987V10.9512C1.25033 10.6991 1.35066 10.4573 1.52898 10.279C1.7073 10.1007 1.94906 10.0003 2.20125 10H5.29875C5.55094 10.0003 5.7927 10.1007 5.97102 10.279C6.14934 10.4573 6.24967 10.6991 6.25 10.9512V17.7987C6.24967 18.0509 6.14934 18.2927 5.97102 18.471C5.7927 18.6493 5.55094 18.7497 5.29875 18.75ZM2.5 17.5H5V11.25H2.5V17.5ZM12.1875 18.75H7.8125C7.56396 18.7497 7.3257 18.6508 7.14995 18.475C6.97421 18.2993 6.87533 18.061 6.875 17.8125V9.0625C6.87533 8.81396 6.97421 8.5757 7.14995 8.39995C7.3257 8.22421 7.56396 8.12533 7.8125 8.125H12.1875C12.436 8.12533 12.6743 8.22421 12.85 8.39995C13.0258 8.5757 13.1247 8.81396 13.125 9.0625V17.8125C13.1247 18.061 13.0258 18.2993 12.85 18.475C12.6743 18.6508 12.436 18.7497 12.1875 18.75ZM8.125 17.5H11.875V9.375H8.125V17.5ZM17.775 18.75H14.725C14.4664 18.75 14.2184 18.6473 14.0356 18.4644C13.8527 18.2816 13.75 18.0336 13.75 17.775V12.225C13.75 11.9664 13.8527 11.7184 14.0356 11.5356C14.2184 11.3527 14.4664 11.25 14.725 11.25H17.775C18.0336 11.25 18.2816 11.3527 18.4644 11.5356C18.6473 11.7184 18.75 11.9664 18.75 12.225V17.775C18.75 18.0336 18.6473 18.2816 18.4644 18.4644C18.2816 18.6473 18.0336 18.75 17.775 18.75ZM15 17.5H17.5V12.5H15V17.5Z" fill="#FFCF00"/></svg>