<svg width="20" height="20" viewBox="0 0 20 20" fill="none" xmlns="http://www.w3.org/2000/svg">
<path d="M3.33301 5.83594V4.16927C3.33301 3.70903 3.7061 3.33594 4.16634 3.33594H15.833C16.2932 3.33594 16.6663 3.70903 16.6663 4.16927V5.83594" stroke="#FFCF00" stroke-width="1.5" stroke-linecap="round" stroke-linejoin="round"/>
<path fill-rule="evenodd" clip-rule="evenodd" d="M16.6667 5.83594H3.33333C2.8731 5.83594 2.5 6.20903 2.5 6.66927V15.8359C2.5 16.7564 3.24619 17.5026 4.16667 17.5026H15.8333C16.7538 17.5026 17.5 16.7564 17.5 15.8359V6.66927C17.5 6.20903 17.1269 5.83594 16.6667 5.83594Z" stroke="#FFCF00" stroke-width="1.5" stroke-linecap="round" stroke-linejoin="round"/>
<path d="M13.3337 9.16406C13.3337 11.005 11.8413 12.4974 10.0003 12.4974C8.15938 12.4974 6.66699 11.005 6.66699 9.16406" stroke="#FFCF00" stroke-width="1.5" stroke-linecap="round" stroke-linejoin="round"/>
</svg>
