<svg width="12" height="12" viewBox="0 0 12 12" fill="none" xmlns="http://www.w3.org/2000/svg">
    <path fill-rule="evenodd" clip-rule="evenodd" d="M4.90948 7.09642C4.22698 6.41392 3.71248 5.64975 3.37065 4.8745C3.2989 4.71058 3.3409 4.51867 3.46748 4.39208L3.94523 3.91433C4.33665 3.52292 4.33665 2.96933 3.99481 2.6275L3.31056 1.94325C2.85498 1.48767 2.11648 1.48767 1.6609 1.94325L1.28056 2.323C0.848313 2.75525 0.668063 3.37883 0.78473 3.99717C1.0729 5.52142 1.9584 7.19033 3.38698 8.61892C4.81556 10.0475 6.48448 10.933 8.00873 11.2212C8.62706 11.3378 9.25065 11.1576 9.6829 10.7253L10.0626 10.3456C10.5182 9.89 10.5182 9.1515 10.0626 8.69592L9.3784 8.01167C9.03656 7.66983 8.4824 7.66983 8.14115 8.01167L7.6144 8.539C7.48781 8.66558 7.2959 8.70817 7.13198 8.63583C6.35673 8.29342 5.59198 7.77833 4.90948 7.09642Z" fill="#4663DB"/>
    <path d="M7.74951 0.75V4.25H11.2495" stroke="#4663DB" stroke-width="1.05" stroke-linecap="round" stroke-linejoin="round"/>
    <path d="M11.2495 0.75L7.74951 4.25" stroke="#4663DB" stroke-width="1.05" stroke-linecap="round" stroke-linejoin="round"/>
</svg>
