<svg width="11" height="11" viewBox="0 0 11 11" fill="none" xmlns="http://www.w3.org/2000/svg">
    <path d="M9.62251 0.75L0.90332 9.50583" stroke="#E92857" stroke-width="1.5" stroke-linecap="round" stroke-linejoin="round"/>
    <path fill-rule="evenodd" clip-rule="evenodd" d="M4.60107 8.13092C5.75143 9.01233 6.98548 9.57583 8.137 9.79458C8.75315 9.91125 9.37454 9.731 9.80527 9.29875L10.1837 8.919C10.6377 8.46342 10.6377 7.72492 10.1837 7.26875L9.50184 6.5845C9.16121 6.24267 8.609 6.24267 8.26895 6.5845L7.74405 7.11183C7.61791 7.23842 7.42667 7.281 7.26333 7.20867C6.8855 7.04125 6.51 6.83125 6.14553 6.58217" fill="#E92857"/>
    <path fill-rule="evenodd" clip-rule="evenodd" d="M4.89577 5.49873C4.29472 4.8594 3.82854 4.15765 3.51523 3.44481C3.44373 3.28148 3.48558 3.08956 3.61172 2.96298L4.08779 2.48523C4.47783 2.09381 4.47783 1.54023 4.1372 1.1984L3.45536 0.513562C3.00138 0.0579792 2.26548 0.0579792 1.8115 0.513562L1.4325 0.893896C1.00178 1.32615 0.82216 1.94973 0.938416 2.56806C1.21452 4.03456 2.04692 5.63231 3.37688 7.02415" fill="#E92857"/>
</svg>
