<svg width="12" height="12" viewBox="0 0 12 12" fill="none" xmlns="http://www.w3.org/2000/svg">
    <path fill-rule="evenodd" clip-rule="evenodd" d="M4.90997 7.08861C4.22747 6.40611 3.71297 5.64194 3.37113 4.86669C3.29938 4.70277 3.34138 4.51085 3.46797 4.38427L3.94572 3.90652C4.33713 3.5151 4.33713 2.96152 3.9953 2.61969L3.31105 1.93544C2.85547 1.47985 2.11697 1.47985 1.66138 1.93544L1.28105 2.31519C0.848801 2.74744 0.668551 3.37102 0.785218 3.98935C1.07338 5.5136 1.95888 7.18252 3.38747 8.61111C4.81605 10.0397 6.48497 10.9252 8.00922 11.2134C8.62755 11.33 9.25114 11.1498 9.68339 10.7175L10.0631 10.3378C10.5187 9.88219 10.5187 9.14369 10.0631 8.68811L9.37889 8.00386C9.03705 7.66202 8.48288 7.66202 8.14163 8.00386L7.61488 8.53119C7.4883 8.65777 7.29639 8.70036 7.13247 8.62802C6.35722 8.28561 5.59247 7.77052 4.90997 7.08861Z" fill="#45B36B"/>
    <path d="M11.25 4.25V0.75H7.75" stroke="#45B36B" stroke-width="1.4" stroke-linecap="round" stroke-linejoin="round"/>
    <path d="M7.75 4.25L11.25 0.75" stroke="#45B36B" stroke-width="1.4" stroke-linecap="round" stroke-linejoin="round"/>
</svg>
