<svg width="36" height="36" viewBox="0 0 36 36" fill="none" xmlns="http://www.w3.org/2000/svg">
<path d="M27.6822 16.6499C26.5159 15.3894 25.0168 14.6953 23.4609 14.6953C21.905 14.6953 20.4059 15.3894 19.2396 16.6499C18.1539 17.8232 17.5312 19.3091 17.5312 20.7266C17.5312 23.6301 20.1913 25.9922 23.4609 25.9922C26.7306 25.9922 29.3906 23.6301 29.3906 20.7266C29.3906 19.3091 28.768 17.8232 27.6822 16.6499Z" fill="#93CAFD"/>
<path d="M24.5156 32.695V29.3301H22.4062V32.695H18.2812V35.9996H20.3906V34.8043H26.5312V35.9996H28.6406V32.695H24.5156Z" fill="#474F54"/>
<path d="M28.3372 24.7393H18.5847C18.0629 25.2455 17.5312 26.0049 17.5312 26.9997C17.5312 27.5998 17.7963 28.7288 19.5718 29.5483C20.6282 30.0358 22.0093 30.3044 23.4609 30.3044C24.9125 30.3044 26.2937 30.0358 27.35 29.5483C29.1254 28.7289 29.3905 27.5998 29.3905 26.9997C29.3906 26.0049 28.8589 25.2455 28.3372 24.7393Z" fill="#72BAFD"/>
<path d="M10.9454 23.8828L10.2422 24.7396L10.9454 25.9922H31.8282V36H33.9376V23.8828H10.9454Z" fill="#FFDBBD"/>
<path d="M6.6875 23.8828V36H8.79688V25.9922H10.9468V23.8828H6.6875Z" fill="#EABEA0"/>
<path d="M19.8263 8.88159C19.8263 3.98433 15.8422 0 10.9448 0L9.75 10.5L10.9448 21.722C11.2832 21.4867 19.8263 15.4717 19.8263 8.88159Z" fill="#FE3232"/>
<path d="M10.9441 0C6.04683 0 2.0625 3.98426 2.0625 8.88159C2.0625 15.4719 10.606 21.487 10.9441 21.722V0Z" fill="#FF5B5B"/>
<path d="M7.5 7.5L14.5 14.5M7.50001 14.5L11 11L14.5 7.5" stroke="white" stroke-width="1.5" stroke-linecap="round"/>
</svg>
