<svg xmlns="http://www.w3.org/2000/svg" width="32" height="32" viewBox="0 0 32 32" fill="none">
    <g clip-path="url(#clip0_2620_60872)">
        <path d="M27.8915 28.3397C27.8915 28.3397 27.6455 27.3965 27.3994 26.4943C26.7023 23.6647 25.8205 23.4596 24.7133 23.1521C23.6061 22.8445 19.9768 21.6758 19.0541 21.4912H12.9487C12.026 21.6758 8.39671 22.8445 7.28947 23.1521C6.18224 23.4596 5.30057 23.6647 4.60343 26.4943C4.35738 27.3965 4.11133 28.3397 4.11133 28.3397C4.11133 28.3397 6.63811 31.2486 15.6785 31.3314C15.7611 31.3325 16.2418 31.3325 16.3244 31.3314C25.3647 31.2486 27.8915 28.3397 27.8915 28.3397Z" fill="#F4F4F4"/>
        <path d="M19.2209 20.7069C18.8579 19.7823 18.7744 18.7861 18.7744 18.7861H13.1867C13.1867 18.7861 13.1032 19.7823 12.7402 20.7069C13.0482 21.2795 15.702 22.7611 15.9559 22.9941H15.9812C16.2352 22.7611 18.9129 21.2795 19.2209 20.7069Z" fill="#FFDBBD"/>
        <path d="M18.889 19.5183C18.805 19.0904 18.7794 18.7861 18.7794 18.7861H13.1917C13.1917 18.7861 13.1603 19.1597 13.0527 19.6614C13.5617 20.0801 14.8366 21.016 16.0668 21.016C17.3177 21.016 18.4622 19.9623 18.889 19.5183Z" fill="#EABEA0"/>
        <path d="M17.1809 23.8753C17.1809 23.8753 16.1543 22.9785 15.9896 22.9785L15.9893 22.9789L15.9891 22.9785C15.8245 22.9785 14.7978 23.8753 14.7978 23.8753L14.5957 24.8413C14.5957 24.8413 15.3177 26.0066 15.9891 26.0066L15.9893 26.0063L15.9896 26.0066C16.6611 26.0066 17.3831 24.8413 17.3831 24.8413L17.1809 23.8753Z" fill="#2B3841"/>
        <path d="M15.9879 25.3652H15.9875C15.5469 25.3654 15.2891 25.4645 15.2333 25.7365C15.1883 25.9558 14.1376 29.7728 13.7305 31.2496C14.3434 31.286 14.9916 31.3087 15.6779 31.315C15.7605 31.3162 16.2413 31.3162 16.3238 31.315C16.9334 31.3097 17.5427 31.2901 18.1514 31.2562C17.804 29.9077 16.7887 25.9625 16.7425 25.7371C16.6867 25.465 16.4284 25.3654 15.9879 25.3652Z" fill="#2B3841"/>
        <path d="M12.7798 20.5996L11.7988 21.795L14.0101 25.6283L15.9887 22.9833L12.7798 20.5996ZM19.2117 20.5996L20.1927 21.795L17.9815 25.6283L15.9964 22.9833L19.2117 20.5996Z" fill="white"/>
        <path d="M27.3995 26.4942C26.7024 23.6646 25.8207 23.4596 24.7134 23.152C24.0272 22.9614 22.3729 22.4402 20.994 22.0273C20.2678 23.5361 18.3686 27.0188 16.002 27.7581L16.0015 27.7607L15.9979 27.7595L15.9943 27.7607L15.9938 27.7581C13.6282 27.0191 11.7295 23.539 11.0027 22.0292C9.62501 22.4418 7.97467 22.9616 7.28954 23.1519C6.1823 23.4595 5.30063 23.6645 4.60343 26.4941C4.35738 27.3963 4.11133 28.3395 4.11133 28.3395C4.11133 28.3395 6.63811 31.2484 15.6785 31.3312C15.7611 31.3325 16.2418 31.3325 16.3244 31.3312C25.3647 31.2484 27.8915 28.3395 27.8915 28.3395C27.8915 28.3395 27.6456 27.3964 27.3995 26.4942Z" fill="#0E73F6"/>
        <path d="M24.9516 26.7725C24.9448 27.5096 24.8737 29.4156 24.7123 30.1086C24.9502 30.0234 25.1015 29.9666 25.1015 29.9666C25.1459 29.4047 25.2567 28.0914 24.9516 26.7725ZM7.03261 26.7725C7.03944 27.5096 7.11048 29.4156 7.27196 30.1086C7.03402 30.0234 6.88276 29.9666 6.88276 29.9666C6.83829 29.4047 6.7275 28.0914 7.03261 26.7725Z" fill="#0E73F6"/>
        <path d="M21.6016 13.1931L22.1189 11.6158C22.1189 11.6158 23.0292 11.375 23.5092 12.3081C23.9893 13.2412 22.733 15.1585 21.6494 15.3196C21.349 14.5897 21.6016 13.1931 21.6016 13.1931ZM10.2062 13.1931L9.68889 11.6158C9.68889 11.6158 8.77868 11.375 8.29863 12.3081C7.81858 13.2413 9.0748 15.1585 10.1585 15.3196C10.4589 14.5897 10.2062 13.1931 10.2062 13.1931Z" fill="#FFDBBD"/>
        <path d="M15.934 5.46906L15.9338 5.46875H15.9074L15.9073 5.46906C13.6825 5.48228 9.03173 7.17236 9.58892 12.8093C9.88941 16.0412 12.1989 20.3745 15.9069 20.3954L15.9074 20.3959H15.9338L15.9343 20.3954C19.6422 20.3745 21.9518 16.0412 22.2522 12.8093C22.8095 7.17236 18.1588 5.48228 15.934 5.46906Z" fill="#FFDBBD"/>
        <path d="M9.50562 11.6439C11.5354 10.629 16.4288 12.0048 19.3068 8.77552C18.9555 9.51362 18.6856 10.3722 17.9084 10.6182C18.8126 10.4542 19.9608 10.1671 20.74 9.01887C20.9451 9.38795 21.0754 10.62 22.3928 11.646C22.5994 10.6182 22.3407 5.12305 16.0862 5.12305C9.8317 5.12305 9.07478 10.2932 9.50562 11.6439Z" fill="#513E36"/>
        <path d="M6 4.8418H6.43582V10.172H6V4.8418Z" fill="#FBB342"/>
        <path d="M7.03914 10.4561C7.03914 10.0025 6.67141 9.63477 6.21781 9.63477C5.76421 9.63477 5.39648 10.0025 5.39648 10.4561V16.1961H7.03914V10.4561Z" fill="#FDD148"/>
        <path d="M6.21844 9.26206C6.68642 9.26206 7.06579 8.86914 7.06579 8.38445C7.06579 7.89976 6.68642 7.50684 6.21844 7.50684C5.75046 7.50684 5.37109 7.89976 5.37109 8.38445C5.37109 8.86914 5.75046 9.26206 6.21844 9.26206Z" fill="#FDD148"/>
        <path d="M15.8852 8.19113L27.5425 4.50636L15.8797 0.665039L4.2168 4.50636L15.8741 8.19113L15.8763 8.19396L15.8797 8.19292L15.883 8.19396L15.8852 8.19113Z" fill="#333841"/>
        <path d="M15.925 3.37805L15.9184 3.37793H15.912L15.9054 3.37805C13.1653 3.38002 10.999 4.00524 9.52344 4.9424V9.5463C9.52344 9.5463 12.2869 8.43076 15.9097 9.81124L15.912 9.8145L15.9152 9.81333L15.9184 9.8145L15.9208 9.81124C19.5436 8.43076 22.307 9.5463 22.307 9.5463V4.9424C20.8314 4.00524 18.6652 3.38008 15.925 3.37805Z" fill="#3D454E"/>
    </g>
    <defs>
        <clipPath id="clip0_2620_60872">
            <rect width="30.6667" height="30.6667" fill="white" transform="translate(0.667969 0.666016)"/>
        </clipPath>
    </defs>
</svg>