<svg width="38" height="38" viewBox="0 0 38 38" fill="none" xmlns="http://www.w3.org/2000/svg">
<g clip-path="url(#clip0_402_167115)">
<path d="M33.481 34.0228C33.481 34.0228 33.1815 32.8746 32.882 31.7762C32.0333 28.3315 30.9599 28.0819 29.6119 27.7075C28.264 27.333 23.8457 25.9102 22.7224 25.6855H15.2898C14.1665 25.9102 9.74824 27.333 8.4003 27.7075C7.05235 28.0819 5.97902 28.3315 5.13034 31.7762C4.83079 32.8746 4.53125 34.0228 4.53125 34.0228C4.53125 34.0228 7.60733 37.5641 18.613 37.6649C18.7136 37.6663 19.2988 37.6663 19.3993 37.6649C30.405 37.5641 33.481 34.0228 33.481 34.0228Z" fill="#F4F4F4"/>
<path d="M22.9286 24.7319C22.4867 23.6063 22.3851 22.3936 22.3851 22.3936H15.5826C15.5826 22.3936 15.481 23.6063 15.0391 24.7319C15.414 25.4289 18.6447 27.2326 18.9538 27.5163H18.9846C19.2938 27.2326 22.5536 25.4289 22.9286 24.7319Z" fill="#FFDBBD"/>
<path d="M22.5191 23.2849C22.4169 22.7639 22.3857 22.3936 22.3857 22.3936H15.5832C15.5832 22.3936 15.545 22.8483 15.4141 23.4591C16.0337 23.9689 17.5857 25.1082 19.0834 25.1082C20.6062 25.1082 21.9995 23.8254 22.5191 23.2849Z" fill="#EABEA0"/>
<path d="M20.4441 28.5888C20.4441 28.5888 19.1943 27.4971 18.9938 27.4971L18.9935 27.4975L18.9932 27.4971C18.7928 27.4971 17.5429 28.5888 17.5429 28.5888L17.2969 29.7648C17.2969 29.7648 18.1758 31.1834 18.9932 31.1834L18.9935 31.1831L18.9938 31.1834C19.8112 31.1834 20.6902 29.7648 20.6902 29.7648L20.4441 28.5888Z" fill="#2B3841"/>
<path d="M18.9904 30.4033H18.9898C18.4535 30.4035 18.1396 30.5241 18.0717 30.8553C18.017 31.1222 16.7378 35.7691 16.2422 37.5669C16.9884 37.6112 17.7775 37.6389 18.613 37.6465C18.7136 37.648 19.2988 37.648 19.3993 37.6465C20.1414 37.64 20.8832 37.6162 21.6242 37.575C21.2013 35.9333 19.9653 31.1305 19.909 30.856C19.841 30.5248 19.5267 30.4035 18.9904 30.4033Z" fill="#2B3841"/>
<path d="M15.0849 24.6006L13.8906 26.0558L16.5826 30.7225L18.9914 27.5024L15.0849 24.6006ZM22.915 24.6006L24.1092 26.0558L21.4173 30.7225L19.0007 27.5024L22.915 24.6006Z" fill="white"/>
<path d="M32.8821 31.7768C32.0334 28.332 30.96 28.0824 29.6121 27.708C28.7767 27.4759 26.7627 26.8415 25.0841 26.3389C24.2 28.1757 21.8879 32.4154 19.0068 33.3154L19.0062 33.3186L19.0019 33.3171L18.9975 33.3186L18.9969 33.3154C16.117 32.4158 13.8056 28.1792 12.9207 26.3411C11.2436 26.8434 9.23445 27.4762 8.40037 27.7079C7.05243 28.0824 5.97909 28.332 5.13034 31.7767C4.83079 32.875 4.53125 34.0233 4.53125 34.0233C4.53125 34.0233 7.60733 37.5645 18.613 37.6653C18.7136 37.6668 19.2988 37.6668 19.3993 37.6653C30.405 37.5645 33.481 34.0233 33.481 34.0233C33.481 34.0233 33.1816 32.8751 32.8821 31.7768Z" fill="#0E73F6"/>
<path d="M29.9017 32.1162C29.8934 33.0136 29.8069 35.334 29.6103 36.1776C29.9 36.0739 30.0841 36.0047 30.0841 36.0047C30.1383 35.3207 30.2731 33.7219 29.9017 32.1162ZM8.08725 32.1162C8.09556 33.0136 8.18206 35.334 8.37863 36.1776C8.08897 36.0739 7.90483 36.0047 7.90483 36.0047C7.85069 35.3207 7.71582 33.7219 8.08725 32.1162Z" fill="#0E73F6"/>
<path d="M25.8231 15.583L26.4529 13.6629C26.4529 13.6629 27.561 13.3697 28.1454 14.5057C28.7298 15.6417 27.2005 17.9758 25.8812 18.1719C25.5155 17.2833 25.8231 15.583 25.8231 15.583ZM11.9504 15.583L11.3206 13.6629C11.3206 13.6629 10.2126 13.3697 9.62815 14.5057C9.04374 15.6417 10.5731 17.9758 11.8923 18.1719C12.2581 17.2833 11.9504 15.583 11.9504 15.583Z" fill="#FFDBBD"/>
<path d="M18.921 6.18104L18.9208 6.18066H18.8887L18.8885 6.18104C16.1801 6.19714 10.5183 8.25463 11.1966 15.117C11.5624 19.0514 14.374 24.3268 18.888 24.3523L18.8886 24.3529H18.9207L18.9213 24.3523C23.4354 24.3268 26.247 19.0514 26.6128 15.117C27.2912 8.25463 21.6294 6.19714 18.921 6.18104Z" fill="#FFDBBD"/>
<path d="M11.0975 13.6982C13.5686 12.4626 19.5258 14.1375 23.0294 10.2063C22.6017 11.1048 22.2731 12.15 21.327 12.4495C22.4278 12.2498 23.8256 11.9004 24.7742 10.5025C25.0238 10.9518 25.1825 12.4517 26.7863 13.7007C27.0378 12.4495 26.7228 5.75977 19.1087 5.75977C11.4945 5.75977 10.573 12.0538 11.0975 13.6982Z" fill="#513E36"/>
<path d="M6.82812 5.41797H7.35869V11.907H6.82812V5.41797Z" fill="#FBB342"/>
<path d="M8.0935 12.2538C8.0935 11.7016 7.64583 11.2539 7.09362 11.2539C6.54142 11.2539 6.09375 11.7016 6.09375 12.2538V19.2417H8.0935V12.2538Z" fill="#FDD148"/>
<path d="M7.09405 10.7989C7.66376 10.7989 8.1256 10.3206 8.1256 9.7305C8.1256 9.14045 7.66376 8.66211 7.09405 8.66211C6.52434 8.66211 6.0625 9.14045 6.0625 9.7305C6.0625 10.3206 6.52434 10.7989 7.09405 10.7989Z" fill="#FDD148"/>
<path d="M18.8691 9.49521L33.0605 5.0094L18.8623 0.333008L4.66406 5.0094L18.8555 9.49521L18.8582 9.49865L18.8623 9.49738L18.8664 9.49865L18.8691 9.49521Z" fill="#333841"/>
<path d="M18.9182 3.63589L18.9102 3.63574H18.9024L18.8944 3.63589C15.5585 3.63829 12.9214 4.39943 11.125 5.54031V11.1451C11.125 11.1451 14.4892 9.78701 18.8996 11.4676L18.9024 11.4716L18.9063 11.4701L18.9102 11.4716L18.913 11.4676C23.3235 9.78701 26.6876 11.1451 26.6876 11.1451V5.54031C24.8913 4.39943 22.2541 3.63836 18.9182 3.63589Z" fill="#3D454E"/>
</g>
<defs>
<clipPath id="clip0_402_167115">
<rect width="37.3333" height="37.3333" fill="white" transform="translate(0.335938 0.333008)"/>
</clipPath>
</defs>
</svg>
