<svg width="34" height="38" viewBox="0 0 34 38" fill="none" xmlns="http://www.w3.org/2000/svg">
<path d="M24.7118 12.6897L25.4241 10.5179C25.4241 10.5179 26.6774 10.1863 27.3384 11.4712C27.9993 12.756 26.2696 15.3959 24.7775 15.6177C24.364 14.6127 24.7118 12.6897 24.7118 12.6897ZM9.0215 12.6897L8.30919 10.5179C8.30919 10.5179 7.05592 10.1863 6.39494 11.4712C5.73396 12.7561 7.46366 15.3959 8.95577 15.6177C9.36944 14.6127 9.0215 12.6897 9.0215 12.6897Z" fill="#FFDBBD"/>
<path d="M33.3757 33.5458C33.3757 33.5458 33.0369 32.2472 32.6981 31.0049C31.7382 27.1088 30.5242 26.8265 28.9996 26.403C27.4751 25.9796 22.4779 24.3703 21.2075 24.1162H12.801C11.5305 24.3703 6.53335 25.9796 5.0088 26.403C3.48424 26.8265 2.27027 27.1088 1.31039 31.0049C0.971603 32.2472 0.632812 33.5458 0.632812 33.5458C0.632812 33.5458 4.11193 37.5511 16.5596 37.6651C16.6733 37.6667 17.3353 37.6667 17.4489 37.6651C29.8966 37.5511 33.3757 33.5458 33.3757 33.5458Z" fill="#E7EBF0"/>
<path d="M21.4389 23.0364C20.9391 21.7633 20.8241 20.3916 20.8241 20.3916H13.1304C13.1304 20.3916 13.0154 21.7633 12.5156 23.0364C12.9397 23.8246 16.6102 27.2031 16.9598 27.5239H16.9947C17.3443 27.2031 21.0148 23.8247 21.4389 23.0364Z" fill="#FFDBBD"/>
<path d="M20.9812 21.4007C20.8656 20.8115 20.8304 20.3926 20.8304 20.3926H13.1366C13.1366 20.3926 13.0934 20.9069 12.9453 21.5977C13.6461 22.1743 15.4015 23.4629 17.0954 23.4629C18.8177 23.4628 20.3936 22.012 20.9812 21.4007Z" fill="#EABEA0"/>
<path d="M18.6299 27.4203C18.6299 27.4203 17.2163 26.1855 16.9896 26.1855L16.9892 26.1861L16.9889 26.1855C16.7622 26.1855 15.3486 27.4203 15.3486 27.4203L15.0703 28.7504C15.0703 28.7504 16.0644 30.3549 16.989 30.3549L16.9893 30.3545L16.9896 30.3549C17.9142 30.3549 18.9083 28.7504 18.9083 28.7504L18.6299 27.4203Z" fill="#2B3841"/>
<path d="M16.9858 37.0743L19.5125 35.8255C19.5125 35.8255 18.1015 30.3594 18.0246 29.9847C17.9478 29.61 17.5922 29.4728 16.9857 29.4727H16.985C16.3784 29.4728 16.0234 29.6093 15.9466 29.9839C15.8698 30.3587 14.3672 35.8255 14.3672 35.8255L16.9849 37.0743L16.985 37.0748L16.9854 37.0745L16.9857 37.0748L16.9858 37.0743Z" fill="#2B3841"/>
<path d="M29.0001 26.4034C27.9765 26.1191 25.3873 25.3001 23.4119 24.7158C22.6728 31.498 16.9865 34.9579 16.9865 34.9579H16.9804C16.9804 34.9579 11.3011 31.502 10.5566 24.7279C8.58639 25.3114 6.0259 26.121 5.00928 26.4034C4.96693 27.081 4.28935 31.6591 5.00928 35.9763C7.48177 36.841 11.1838 37.6163 16.5601 37.6655C16.6738 37.6672 17.3357 37.6672 17.4494 37.6655C22.8257 37.6163 26.5278 36.841 29.0002 35.9763C29.72 31.659 29.0425 27.0809 29.0001 26.4034Z" fill="#FE3232"/>
<path d="M12.5695 23.499L11.2188 25.2625L14.2635 30.9176L16.9878 27.0155L12.5695 23.499ZM21.4256 23.499L22.7762 25.2625L19.7316 30.9176L16.9983 27.0155L21.4256 23.499Z" fill="#F7F9FA"/>
<path d="M16.9092 2.05511L16.9089 2.05469H16.8726L16.8724 2.05511C13.8091 2.07332 7.40546 4.40039 8.17265 12.1619C8.58639 16.6118 11.7664 22.5783 16.8718 22.6072L16.8725 22.6079H16.9089L16.9095 22.6072C22.015 22.5783 25.1951 16.6118 25.6087 12.1619C26.3761 4.40047 19.9725 2.07332 16.9092 2.05511Z" fill="#FFDBBD"/>
<path d="M8.1767 12.1623C8.41114 11.0844 8.97582 9.55986 9.87921 8.76938C10.7826 7.9789 12.8499 6.73664 12.9455 5.83317C13.6059 7.58361 17.3693 11.4079 22.357 11.4395C21.6804 10.4794 21.0028 9.78575 20.7205 7.69651C20.7205 7.69651 21.7369 10.8585 23.5437 11.3667C24.5814 11.7286 25.0401 11.6773 25.6567 11.5938C25.6567 11.5938 27.835 5.15559 21.8498 1.76769C15.8645 -1.62022 12.5184 2.05506 12.5184 2.05506C11.6296 1.48539 8.91924 2.05506 8.11335 4.8168C7.15474 8.10205 8.1767 12.1623 8.1767 12.1623Z" fill="#603E19"/>
</svg>
