<svg width="33" height="38" viewBox="0 0 33 38" fill="none" xmlns="http://www.w3.org/2000/svg">
<path d="M23.7849 13.139L24.4843 11.0065C24.4843 11.0065 25.715 10.6809 26.364 11.9426C27.0131 13.2041 25.3146 15.7964 23.8494 16.0143C23.4433 15.0274 23.7849 13.139 23.7849 13.139ZM8.37773 13.139L7.67828 11.0065C7.67828 11.0065 6.44763 10.6809 5.79858 11.9426C5.14953 13.2042 6.84801 15.7964 8.3132 16.0143C8.71939 15.0274 8.37773 13.139 8.37773 13.139Z" fill="#FFDBBD"/>
<path d="M32.2848 33.6198C32.2848 33.6198 31.9521 32.3446 31.6195 31.1247C30.6769 27.299 29.4848 27.0218 27.9877 26.6059C26.4907 26.1901 21.5837 24.6099 20.3362 24.3604H12.0814C10.8338 24.6099 5.92687 26.1901 4.42983 26.6059C2.93278 27.0218 1.74072 27.299 0.798165 31.1247C0.465489 32.3446 0.132812 33.6198 0.132812 33.6198C0.132812 33.6198 3.54915 37.5528 15.7722 37.6647C15.8839 37.6663 16.5338 37.6663 16.6454 37.6647C28.8685 37.5528 32.2848 33.6198 32.2848 33.6198Z" fill="#F4F4F4"/>
<path d="M20.5591 23.3002C20.0683 22.05 19.9554 20.7031 19.9554 20.7031H12.4005C12.4005 20.7031 12.2877 22.05 11.7969 23.3002C12.2133 24.0742 15.8013 26.0774 16.1446 26.3926H16.1789C16.5222 26.0775 20.1426 24.0743 20.5591 23.3002Z" fill="#FFDBBD"/>
<path d="M20.1097 21.6931C19.9961 21.1145 19.9615 20.7031 19.9615 20.7031H12.4066C12.4066 20.7031 12.3641 21.2082 12.2188 21.8865C12.9069 22.4527 14.6307 23.718 16.294 23.718C17.9852 23.7179 19.5326 22.2933 20.1097 21.6931Z" fill="#EABEA0"/>
<path d="M16.1175 2.6967L16.1172 2.69629H16.0816L16.0813 2.6967C13.0734 2.7145 6.78535 4.99966 7.53869 12.6211C7.94497 16.9907 11.0676 22.8496 16.0809 22.8779L16.0816 22.8786H16.1172L16.1179 22.8779C21.1313 22.8496 24.2539 16.9907 24.6601 12.6211C25.4136 4.99966 19.1255 2.7145 16.1175 2.6967Z" fill="#FFDBBD"/>
<path d="M17.7922 27.5835C17.7922 27.5835 16.4041 26.3711 16.1815 26.3711L16.1812 26.3716L16.1808 26.3711C15.9583 26.3711 14.5702 27.5835 14.5702 27.5835L14.2969 28.8896C14.2969 28.8896 15.273 30.4652 16.1808 30.4652L16.1812 30.4648L16.1815 30.4652C17.0894 30.4652 18.0655 28.8896 18.0655 28.8896L17.7922 27.5835Z" fill="#2B3841"/>
<path d="M16.185 29.5977H16.1844C15.5887 29.5978 15.2402 29.7318 15.1647 30.0997C15.1039 30.3961 13.6832 35.557 13.1328 37.5536C13.9616 37.6028 14.8379 37.6335 15.7659 37.642C15.8776 37.6437 16.5275 37.6437 16.6391 37.642C17.4633 37.6348 18.2872 37.6083 19.1101 37.5626C18.6404 35.7394 17.2677 30.4052 17.2052 30.1004C17.1298 29.7326 16.7806 29.5978 16.185 29.5977Z" fill="#2B3841"/>
<path d="M11.8498 23.1533L10.5234 24.7695L13.5132 29.9524L16.1884 26.3761L11.8498 23.1533ZM20.5461 23.1533L21.8724 24.7695L18.8827 29.9524L16.1987 26.3761L20.5461 23.1533Z" fill="white"/>
<path d="M31.6196 31.1234C30.6771 27.2976 29.4849 27.0204 27.9879 26.6046C27.0601 26.3468 24.8234 25.6422 22.9591 25.084C21.9772 27.124 19.4093 31.8327 16.2096 32.8323L16.2089 32.8358L16.2041 32.8341L16.1992 32.8358L16.1985 32.8323C13.0001 31.8331 10.433 27.1279 9.45024 25.0865C7.58759 25.6443 5.35625 26.3472 4.42991 26.6045C2.93287 27.0203 1.7408 27.2975 0.798165 31.1233C0.465489 32.3431 0.132812 33.6184 0.132812 33.6184C0.132812 33.6184 3.54915 37.5514 15.7722 37.6633C15.8839 37.665 16.5338 37.665 16.6454 37.6633C28.8685 37.5514 32.2848 33.6184 32.2848 33.6184C32.2848 33.6184 31.9523 32.3432 31.6196 31.1234Z" fill="#FFCF00"/>
<path d="M28.319 31.501C28.3098 32.4977 28.2137 35.0746 27.9954 36.0116C28.3171 35.8964 28.5216 35.8196 28.5216 35.8196C28.5817 35.0599 28.7314 33.2843 28.319 31.501ZM4.09161 31.501C4.10084 32.4977 4.1969 35.0746 4.41522 36.0116C4.09352 35.8964 3.88901 35.8196 3.88901 35.8196C3.82888 35.0599 3.67909 33.2843 4.09161 31.501Z" fill="#E7B609"/>
<path d="M25.0152 6.84307C24.8397 6.00564 24.4458 5.43992 24.0025 5.08529C24.5358 3.82969 24.8106 2.48068 24.9201 1.75104C23.4586 1.53281 22.2865 1.30725 20.9867 1.66721C21.3629 1.07604 21.3535 0.870197 21.3535 0.870197C21.3535 0.870197 17.7858 0.389147 16.3034 1.16254C16.5612 0.582432 16.498 0.333008 16.498 0.333008C14.3773 0.532614 10.7047 0.912197 9.34028 4.60349C8.59001 4.66928 7.5148 5.29072 7.18952 6.84299C6.77127 8.83904 7.51987 12.6712 7.51987 12.6712C7.52478 12.7531 7.99177 12.8856 8.0885 12.6712C8.06138 12.3039 8.1206 9.18012 10.0764 7.34283C12.7431 8.55061 17.9894 9.98387 22.2766 7.48796C24.0872 9.33997 24.1426 12.3134 24.1162 12.6712C24.2128 12.8856 24.6799 12.7531 24.6848 12.6712C24.6848 12.6713 25.4334 8.83913 25.0152 6.84307Z" fill="#513E36"/>
</svg>
