<svg width="36" height="36" viewBox="0 0 36 36" fill="none" xmlns="http://www.w3.org/2000/svg">
<rect width="36" height="36" rx="10" fill="url(#paint0_linear_402_167321)"/>
<path d="M23.6829 11.3499C23.4175 11.084 23.0646 10.9375 22.6891 10.9375H22.0658V11.5625C22.0658 12.2517 21.5057 12.8125 20.8172 12.8125H15.1984C14.5099 12.8125 13.9498 12.2517 13.9498 11.5625V10.9375H13.3244C12.5508 10.9375 11.9206 11.5676 11.9198 12.3422L11.9063 24.5922C11.9058 24.9681 12.0518 25.3216 12.3171 25.5876C12.5825 25.8535 12.9354 26 13.3109 26H22.6755C23.4492 26 24.0794 25.3699 24.0802 24.5953L24.0938 12.3453C24.0942 11.9694 23.9483 11.6159 23.6829 11.3499ZM18.1592 15.625H21.4858C21.7444 15.625 21.9541 15.8349 21.9541 16.0938C21.9541 16.3526 21.7444 16.5625 21.4858 16.5625H18.1592C17.9006 16.5625 17.691 16.3526 17.691 16.0938C17.691 15.8349 17.9006 15.625 18.1592 15.625ZM18.1592 18.75H21.4858C21.7444 18.75 21.9541 18.9599 21.9541 19.2188C21.9541 19.4776 21.7444 19.6875 21.4858 19.6875H18.1592C17.9006 19.6875 17.691 19.4776 17.691 19.2188C17.691 18.9599 17.9006 18.75 18.1592 18.75ZM18.1592 21.875H21.4992C21.7578 21.875 21.9674 22.0849 21.9674 22.3438C21.9674 22.6026 21.7578 22.8125 21.4992 22.8125H18.1592C17.9006 22.8125 17.691 22.6026 17.691 22.3438C17.691 22.0849 17.9006 21.875 18.1592 21.875ZM14.1697 15.6435C14.3526 15.4604 14.649 15.4604 14.8319 15.6435L15.0865 15.8984L16.1663 14.8174C16.3492 14.6344 16.6456 14.6343 16.8285 14.8174C17.0113 15.0004 17.0113 15.2972 16.8285 15.4803L15.4176 16.8927C15.3741 16.9363 15.3225 16.9708 15.2657 16.9944C15.2089 17.0179 15.148 17.03 15.0865 17.03C15.025 17.03 14.9641 17.0179 14.9073 16.9944C14.8504 16.9708 14.7988 16.9363 14.7554 16.8927L14.1697 16.3064C13.9868 16.1233 13.9868 15.8265 14.1697 15.6435ZM14.1697 19.0072C14.3526 18.8241 14.649 18.8241 14.8319 19.0072L15.0865 19.262L16.1663 18.181C16.3492 17.998 16.6456 17.998 16.8285 18.181C17.0113 18.3641 17.0113 18.6609 16.8285 18.8439L15.4176 20.2564C15.3741 20.2999 15.3225 20.3344 15.2657 20.358C15.2089 20.3816 15.148 20.3937 15.0865 20.3937C15.025 20.3937 14.9641 20.3816 14.9073 20.358C14.8504 20.3344 14.7988 20.2999 14.7554 20.2564L14.1697 19.67C13.9868 19.487 13.9868 19.1902 14.1697 19.0072ZM14.1697 22.1322C14.3526 21.9491 14.649 21.9491 14.8319 22.1322L15.0865 22.387L16.1663 21.306C16.3492 21.123 16.6456 21.123 16.8285 21.306C17.0113 21.4891 17.0113 21.7859 16.8285 21.9689L15.4176 23.3814C15.3741 23.4249 15.3225 23.4594 15.2657 23.483C15.2089 23.5066 15.148 23.5187 15.0865 23.5187C15.025 23.5187 14.9641 23.5066 14.9073 23.483C14.8504 23.4594 14.7988 23.4249 14.7554 23.3814L14.1697 22.795C13.9868 22.612 13.9868 22.3152 14.1697 22.1322Z" fill="white"/>
<path d="M14.8828 11.5625C14.8828 11.7351 15.0226 11.875 15.195 11.875H20.8137C20.9861 11.875 21.1259 11.7351 21.1259 11.5625V10.3125C21.1259 10.1399 20.9861 10 20.8137 10H15.195C15.0226 10 14.8828 10.1399 14.8828 10.3125V11.5625Z" fill="white"/>
<defs>
<linearGradient id="paint0_linear_402_167321" x1="18" y1="4.93526e-07" x2="18" y2="36" gradientUnits="userSpaceOnUse">
<stop stop-color="#EF3F3F"/>
<stop offset="1" stop-color="#FF7373"/>
</linearGradient>
</defs>
</svg>
