<svg xmlns="http://www.w3.org/2000/svg" width="28" height="32" viewBox="0 0 28 32" fill="none">
    <path d="M20.2488 11.187L20.8234 9.43529C20.8234 9.43529 21.8342 9.16783 22.3674 10.2042C22.9005 11.2405 21.5054 13.3699 20.3018 13.5488C19.9682 12.7382 20.2488 11.187 20.2488 11.187ZM7.59293 11.187L7.01838 9.43529C7.01838 9.43529 6.00748 9.16783 5.47433 10.2042C4.94118 11.2406 6.33636 13.3699 7.53991 13.5488C7.87357 12.7382 7.59293 11.187 7.59293 11.187Z" fill="#FFDBBD"/>
    <path d="M27.2348 28.0093C27.2348 28.0093 26.9615 26.9618 26.6882 25.9598C25.914 22.8172 24.9347 22.5895 23.705 22.2479C22.4753 21.9063 18.4446 20.6083 17.4198 20.4033H10.6391C9.61435 20.6083 5.58362 21.9063 4.35391 22.2479C3.12419 22.5895 2.145 22.8172 1.37076 25.9598C1.09749 26.9618 0.824219 28.0093 0.824219 28.0093C0.824219 28.0093 3.63049 31.24 13.6708 31.3319C13.7626 31.3332 14.2965 31.3332 14.3882 31.3319C24.4285 31.24 27.2348 28.0093 27.2348 28.0093Z" fill="#F4F4F4"/>
    <path d="M17.6057 19.5317C17.2026 18.5048 17.1099 17.3984 17.1099 17.3984H10.9041C10.9041 17.3984 10.8113 18.5048 10.4082 19.5317C10.7503 20.1675 13.6976 21.813 13.9796 22.0719H14.0077C14.2897 21.8131 17.2637 20.1676 17.6057 19.5317Z" fill="#FFDBBD"/>
    <path d="M17.2377 18.2116C17.1444 17.7363 17.116 17.3984 17.116 17.3984H10.9102C10.9102 17.3984 10.8753 17.8133 10.7559 18.3705C11.3211 18.8356 12.7371 19.8749 14.1033 19.8749C15.4926 19.8749 16.7637 18.7047 17.2377 18.2116Z" fill="#EABEA0"/>
    <path d="M13.9534 2.60874L13.9532 2.6084H13.9239L13.9237 2.60874C11.4529 2.62336 6.28768 4.50045 6.9065 10.7609C7.24023 14.3503 9.80521 19.1629 13.9233 19.1862L13.9239 19.1867H13.9532L13.9537 19.1862C18.0718 19.1629 20.6369 14.3503 20.9705 10.7609C21.5894 4.50045 16.4242 2.62336 13.9534 2.60874Z" fill="#FFDBBD"/>
    <path d="M15.3341 23.0506C15.3341 23.0506 14.1938 22.0547 14.011 22.0547L14.0107 22.0551L14.0104 22.0547C13.8276 22.0547 12.6874 23.0506 12.6874 23.0506L12.4629 24.1235C12.4629 24.1235 13.2647 25.4177 14.0104 25.4177L14.0107 25.4174L14.011 25.4177C14.7567 25.4177 15.5586 24.1235 15.5586 24.1235L15.3341 23.0506Z" fill="#2B3841"/>
    <path d="M14.0091 24.707H14.0086C13.5193 24.7072 13.233 24.8172 13.171 25.1194C13.1211 25.3629 11.9541 29.6022 11.502 31.2423C12.1827 31.2827 12.9026 31.3079 13.6648 31.3149C13.7566 31.3163 14.2905 31.3163 14.3821 31.3149C15.0591 31.309 15.7359 31.2872 16.4119 31.2497C16.0261 29.752 14.8985 25.3704 14.8471 25.12C14.7852 24.8178 14.4984 24.7072 14.0091 24.707Z" fill="#2B3841"/>
    <path d="M10.4509 19.4121L9.36133 20.7397L11.8172 24.9971L14.0147 22.0594L10.4509 19.4121ZM17.5942 19.4121L18.6837 20.7397L16.2278 24.9971L14.0232 22.0594L17.5942 19.4121Z" fill="white"/>
    <path d="M26.6884 25.96C25.9141 22.8174 24.9349 22.5897 23.7052 22.2481C22.9431 22.0364 21.1058 21.4576 19.5744 20.999C18.7678 22.6747 16.6585 26.5426 14.0301 27.3637L14.0296 27.3666L14.0256 27.3652L14.0216 27.3666L14.021 27.3637C11.3937 26.5429 9.28506 22.6779 8.47782 21.0011C6.94778 21.4593 5.1149 22.0366 4.35398 22.248C3.12426 22.5896 2.14507 22.8173 1.37076 25.9599C1.09749 26.9619 0.824219 28.0094 0.824219 28.0094C0.824219 28.0094 3.63049 31.2401 13.6708 31.332C13.7626 31.3334 14.2965 31.3334 14.3882 31.332C24.4285 31.2401 27.2348 28.0094 27.2348 28.0094C27.2348 28.0094 26.9617 26.962 26.6884 25.96Z" fill="#0067DB"/>
    <path d="M23.978 26.2695C23.9704 27.0882 23.8915 29.205 23.7122 29.9747C23.9764 29.88 24.1444 29.817 24.1444 29.817C24.1938 29.193 24.3168 27.7344 23.978 26.2695ZM4.07693 26.2695C4.08451 27.0882 4.16342 29.205 4.34275 29.9747C4.0785 29.88 3.91051 29.817 3.91051 29.817C3.86111 29.193 3.73807 27.7344 4.07693 26.2695Z" fill="white"/>
    <path d="M21.2606 6.01454C21.1164 5.32665 20.7928 4.86196 20.4287 4.57065C20.8667 3.53926 21.0925 2.43115 21.1824 1.8318C19.9819 1.65254 19.0191 1.46726 17.9514 1.76294C18.2604 1.27734 18.2527 1.10825 18.2527 1.10825C18.2527 1.10825 15.3221 0.713106 14.1044 1.34839C14.3162 0.871876 14.2642 0.666992 14.2642 0.666992C12.5223 0.830954 9.50545 1.14276 8.3847 4.17489C7.76841 4.22893 6.8852 4.7394 6.61801 6.01447C6.27444 7.65409 6.88937 10.802 6.88937 10.802C6.8934 10.8692 7.277 10.978 7.35646 10.802C7.33418 10.5002 7.38283 7.93426 8.98938 6.42506C11.1799 7.41717 15.4894 8.59448 19.011 6.54427C20.4983 8.06557 20.5438 10.5081 20.522 10.802C20.6014 10.978 20.9851 10.8692 20.9891 10.802C20.9891 10.802 21.6041 7.65416 21.2606 6.01454Z" fill="#513E36"/>
</svg>