<svg width="36" height="42" viewBox="0 0 36 42" fill="none" xmlns="http://www.w3.org/2000/svg">
<path d="M26.3435 14.9735L27.1143 12.6236C27.1143 12.6236 28.4703 12.2648 29.1855 13.6551C29.9008 15.0453 28.0292 17.9018 26.4146 18.1418C25.9671 17.0543 26.3435 14.9735 26.3435 14.9735ZM9.366 14.9735L8.59525 12.6236C8.59525 12.6236 7.23917 12.2648 6.52396 13.6551C5.80876 15.0454 7.68035 17.9018 9.29488 18.1418C9.74248 17.0543 9.366 14.9735 9.366 14.9735Z" fill="#E09F67"/>
<path d="M35.7145 37.5411C35.7145 37.5411 35.3479 36.1359 34.9814 34.7917C33.9427 30.576 32.6291 30.2706 30.9795 29.8123C29.3298 29.3541 23.9227 27.6128 22.548 27.3379H13.4519C12.0772 27.6128 6.67007 29.3541 5.02044 29.8123C3.37082 30.2706 2.05725 30.576 1.01863 34.7917C0.652046 36.1359 0.285461 37.5411 0.285461 37.5411C0.285461 37.5411 4.05 41.875 17.5189 41.9983C17.6419 42.0001 18.3581 42.0001 18.4811 41.9983C31.95 41.875 35.7145 37.5411 35.7145 37.5411Z" fill="#F4F4F4"/>
<path d="M22.7982 26.1703C22.2574 24.7928 22.1331 23.3086 22.1331 23.3086H13.8081C13.8081 23.3086 13.6837 24.7928 13.1429 26.1703C13.6018 27.0233 17.5555 29.2307 17.9338 29.5779H17.9716C18.3499 29.2308 22.3393 27.0234 22.7982 26.1703Z" fill="#E09F67"/>
<path d="M22.3004 24.3995C22.1753 23.7619 22.1372 23.3086 22.1372 23.3086H13.8123C13.8123 23.3086 13.7654 23.8652 13.6052 24.6126C14.3635 25.2365 16.263 26.6308 18.0958 26.6308C19.9594 26.6308 21.6646 25.0609 22.3004 24.3995Z" fill="#AD7753"/>
<path d="M17.8982 3.46726L17.8979 3.4668H17.8586L17.8583 3.46726C14.5437 3.48696 7.61474 6.00493 8.44487 14.4032C8.89256 19.2182 12.3334 25.6742 17.8577 25.7054L17.8585 25.7062H17.8978L17.8985 25.7054C23.4229 25.6742 26.8638 19.2182 27.3114 14.4032C28.1417 6.00493 21.2127 3.48687 17.8982 3.46726Z" fill="#E09F67"/>
<path d="M19.7564 30.8907C19.7564 30.8907 18.2268 29.5547 17.9815 29.5547L17.9811 29.5552L17.9808 29.5547C17.7355 29.5547 16.2059 30.8907 16.2059 30.8907L15.9048 32.3299C15.9048 32.3299 16.9804 34.0661 17.9808 34.0661L17.9811 34.0657L17.9815 34.0661C18.9819 34.0661 20.0575 32.3299 20.0575 32.3299L19.7564 30.8907Z" fill="#2B3841"/>
<path d="M17.9809 33.1113H17.9801C17.3238 33.1115 16.9397 33.2592 16.8566 33.6645C16.7896 33.9911 15.2241 39.678 14.6176 41.8782C15.5308 41.9324 16.4965 41.9663 17.519 41.9756C17.6421 41.9774 18.3583 41.9774 18.4813 41.9756C19.3894 41.9677 20.2973 41.9385 21.2041 41.8881C20.6865 39.879 19.1739 34.0012 19.105 33.6653C19.0219 33.26 18.6371 33.1115 17.9809 33.1113Z" fill="#2B3841"/>
<path d="M13.2 26.0098L11.7384 27.7907L15.0329 33.5018L17.9808 29.561L13.2 26.0098ZM22.7826 26.0098L24.2441 27.7907L20.9497 33.5018L17.9921 29.561L22.7826 26.0098Z" fill="white"/>
<path d="M34.9814 34.7917C33.9427 30.576 32.6291 30.2705 30.9795 29.8123C29.9571 29.5283 27.4924 28.7518 25.4381 28.1367C24.3561 30.3846 21.5265 35.5732 18.0006 36.6747L17.9999 36.6786L17.9946 36.6768L17.9892 36.6786L17.9884 36.6747C14.464 35.5737 11.6353 30.3889 10.5524 28.1395C8.49988 28.7541 6.04111 29.5286 5.02035 29.8122C3.37072 30.2704 2.05716 30.5759 1.01845 34.7916C0.651862 36.1358 0.285278 37.541 0.285278 37.541C0.285278 37.541 4.04982 41.8748 17.5187 41.9982C17.6418 42 18.358 42 18.481 41.9982C31.9498 41.8748 35.7144 37.541 35.7144 37.541C35.7144 37.541 35.3479 36.1359 34.9814 34.7917Z" fill="#E92857"/>
<path d="M31.3362 35.207C31.326 36.3053 31.2201 39.1449 30.9796 40.1774C31.3341 40.0504 31.5594 39.9658 31.5594 39.9658C31.6257 39.1288 31.7906 37.1721 31.3362 35.207ZM4.63941 35.207C4.64958 36.3053 4.75543 39.1449 4.996 40.1774C4.64152 40.0504 4.41616 39.9658 4.41616 39.9658C4.3499 39.1288 4.18484 37.1721 4.63941 35.207Z" fill="#D62852"/>
<path d="M8.3857 12.5827C8.59539 12.6243 9.17349 13.1473 9.14755 14.4036C9.14755 14.4684 9.51414 14.4036 9.51414 14.4036C9.51414 14.4036 9.57985 10.7109 10.7712 8.51143C11.9626 6.31193 14.0646 6.8618 17.2752 8.14485C18.8361 8.41979 19.7036 6.33172 22.7983 7.02127C25.893 7.7109 26.9009 13.3687 26.9009 13.9185L27.3563 13.8386C27.3563 13.8386 27.438 12.2991 28.0819 12.6703C28.0923 11.0774 28.6496 5.95845 26.6871 3.86589C25.4569 2.73764 24.6709 1.76014 21.9215 0.935329C19.1722 0.110515 11.3948 -1.54388 10.4047 3.46714C8.75503 3.37925 7.95112 4.93724 7.94067 6.58686C7.93022 8.2364 8.3857 12.5827 8.3857 12.5827Z" fill="#513E36"/>
</svg>
