<svg width="34" height="42" viewBox="0 0 34 42" fill="none" xmlns="http://www.w3.org/2000/svg">
<path d="M33.2842 37.9009C33.2842 37.9009 32.9472 36.6091 32.6102 35.3735C31.6555 31.4982 30.4479 31.2174 28.9314 30.7961C27.415 30.3749 22.4445 28.7742 21.1808 28.5215H12.8191C11.5554 28.7742 6.58481 30.3749 5.06838 30.7961C3.55194 31.2174 2.34444 31.4982 1.38967 35.3735C1.05268 36.6091 0.715698 37.9009 0.715698 37.9009C0.715698 37.9009 4.17629 41.8848 16.5577 41.9982C16.6708 41.9998 17.3292 41.9998 17.4422 41.9982C29.8236 41.8848 33.2842 37.9009 33.2842 37.9009Z" fill="#F4F4F4"/>
<path d="M21.4109 27.449C20.9137 26.1827 20.7994 24.8184 20.7994 24.8184H13.1466C13.1466 24.8184 13.0323 26.1827 12.5352 27.449C12.957 28.2331 16.5915 30.2623 16.9392 30.5815H16.9739C17.3217 30.2623 20.989 28.2331 21.4109 27.449Z" fill="#E09F67"/>
<path d="M20.9532 25.8211C20.8382 25.235 20.8032 24.8184 20.8032 24.8184H13.1504C13.1504 24.8184 13.1073 25.33 12.9601 26.0171C13.6571 26.5906 15.4032 27.8723 17.0881 27.8723C18.8012 27.8723 20.3687 26.4292 20.9532 25.8211Z" fill="#AD7753"/>
<path d="M18.6146 31.7867C18.6146 31.7867 17.2085 30.5586 16.983 30.5586L16.9827 30.5591L16.9823 30.5586C16.7569 30.5586 15.3508 31.7867 15.3508 31.7867L15.074 33.1097C15.074 33.1097 16.0628 34.7057 16.9823 34.7057L16.9827 34.7054L16.983 34.7057C17.9026 34.7057 18.8914 33.1097 18.8914 33.1097L18.6146 31.7867Z" fill="#2B3841"/>
<path d="M16.9824 33.8301H16.9817C16.3783 33.8302 16.0253 33.966 15.9489 34.3386C15.8873 34.6388 14.4482 39.8666 13.8906 41.8891C14.7301 41.9389 15.6178 41.9701 16.5578 41.9787C16.6709 41.9803 17.3293 41.9803 17.4424 41.9787C18.2772 41.9714 19.1118 41.9445 19.9453 41.8982C19.4696 40.0513 18.0791 34.6481 18.0158 34.3393C17.9393 33.9667 17.5857 33.8303 16.9824 33.8301Z" fill="#2B3841"/>
<path d="M12.5875 27.3008L11.2439 28.9379L14.2724 34.1879L16.9823 30.5653L12.5875 27.3008ZM21.3964 27.3008L22.7398 28.9379L19.7114 34.1879L16.9927 30.5653L21.3964 27.3008Z" fill="white"/>
<path d="M32.6103 35.3735C31.6555 31.4982 30.4479 31.2174 28.9315 30.7961C27.9917 30.5351 25.726 29.8213 23.8375 29.2559C22.8429 31.3223 20.2418 36.092 17.0006 37.1045L16.9999 37.1081L16.995 37.1064L16.9901 37.1081L16.9894 37.1045C13.7495 36.0924 11.1492 31.3262 10.1537 29.2584C8.26693 29.8234 6.00668 30.5354 5.06834 30.7961C3.5519 31.2173 2.3444 31.4981 1.38955 35.3734C1.05256 36.6091 0.715576 37.9008 0.715576 37.9008C0.715576 37.9008 4.17617 41.8847 16.5575 41.9981C16.6707 41.9998 17.3291 41.9998 17.4421 41.9981C29.8235 41.8847 33.2841 37.9008 33.2841 37.9008C33.2841 37.9008 32.9473 36.6091 32.6103 35.3735Z" fill="#333841"/>
<path d="M29.2594 35.7559C29.2501 36.7655 29.1528 39.3758 28.9316 40.3249C29.2575 40.2082 29.4646 40.1304 29.4646 40.1304C29.5255 39.3609 29.6772 37.5623 29.2594 35.7559ZM4.71815 35.7559C4.7275 36.7655 4.82481 39.3758 5.04596 40.3249C4.72009 40.2082 4.51293 40.1304 4.51293 40.1304C4.45202 39.3609 4.30029 37.5623 4.71815 35.7559Z" fill="#3D454E"/>
<path d="M24.6699 17.1554L25.3784 14.9953C25.3784 14.9953 26.625 14.6654 27.2825 15.9435C27.9399 17.2214 26.2194 19.8473 24.7353 20.0679C24.3239 19.0682 24.6699 17.1554 24.6699 17.1554ZM9.06314 17.1554L8.35462 14.9953C8.35462 14.9953 7.10803 14.6654 6.45057 15.9435C5.79311 17.2215 7.51359 19.8473 8.99776 20.0679C9.40922 19.0682 9.06314 17.1554 9.06314 17.1554Z" fill="#E09F67"/>
<path d="M16.9064 6.57855L16.9062 6.57812H16.87L16.8698 6.57855C13.8228 6.59666 7.45327 8.91133 8.21638 16.6315C8.62792 21.0577 11.791 26.9925 16.8693 27.0212L16.8699 27.0219H16.9061L16.9067 27.0212C21.985 26.9925 25.1482 21.0577 25.5596 16.6315C26.3229 8.91133 19.9533 6.59666 16.9064 6.57855Z" fill="#E09F67"/>
<path d="M8.10057 15.0362C10.8805 13.6462 17.5823 15.5305 21.5239 11.1078C21.0428 12.1186 20.6731 13.2945 19.6087 13.6315C20.8471 13.4068 22.4197 13.0137 23.4868 11.4411C23.7676 11.9465 23.9462 13.6339 25.7505 15.0391C26.0334 13.6315 25.679 6.10547 17.1131 6.10547C8.54716 6.10547 7.5105 13.1863 8.10057 15.0362Z" fill="#513E36"/>
<path d="M3.30164 5.7207H3.89852V13.0208H3.30164V5.7207Z" fill="#FBB342"/>
<path d="M4.72494 13.41C4.72494 12.7888 4.22131 12.2852 3.60008 12.2852C2.97885 12.2852 2.47522 12.7888 2.47522 13.41V21.2714H4.72494V13.41Z" fill="#FDD148"/>
<path d="M3.60007 11.775C4.24099 11.775 4.76057 11.2369 4.76057 10.573C4.76057 9.90922 4.24099 9.37109 3.60007 9.37109C2.95915 9.37109 2.43958 9.90922 2.43958 10.573C2.43958 11.2369 2.95915 11.775 3.60007 11.775Z" fill="#FDD148"/>
<path d="M16.8412 10.3075L32.8066 5.26094L16.8336 0L0.860596 5.26094L16.826 10.3075L16.829 10.3114L16.8336 10.3099L16.8382 10.3114L16.8412 10.3075Z" fill="#333841"/>
<path d="M16.8976 3.71501L16.8886 3.71484H16.8798L16.8708 3.71501C13.118 3.71771 10.1512 4.57399 8.13025 5.85748V12.1628C8.13025 12.1628 11.9149 10.635 16.8766 12.5257L16.8798 12.5301L16.8842 12.5285L16.8886 12.5301L16.8918 12.5257C21.8536 10.635 25.6382 12.1628 25.6382 12.1628V5.85748C23.6173 4.57399 20.6505 3.71779 16.8976 3.71501Z" fill="#3D454E"/>
</svg>
