<svg width="36" height="42" viewBox="0 0 36 42" fill="none" xmlns="http://www.w3.org/2000/svg">
<path d="M26.349 14.9575L27.1203 12.6061C27.1203 12.6061 28.4772 12.247 29.1929 13.6382C29.9086 15.0293 28.0357 17.8877 26.4202 18.1278C25.9724 17.0397 26.349 14.9575 26.349 14.9575ZM9.36044 14.9575L8.5892 12.6061C8.5892 12.6061 7.23223 12.247 6.51656 13.6382C5.80089 15.0293 7.6737 17.8877 9.28928 18.1278C9.73717 17.0397 9.36044 14.9575 9.36044 14.9575Z" fill="#E09F67"/>
<path d="M35.7261 37.538C35.7261 37.538 35.3592 36.1319 34.9924 34.7868C33.9531 30.5684 32.6386 30.2627 30.9879 29.8042C29.3372 29.3456 23.9266 27.6032 22.551 27.3281H13.4489C12.0733 27.6032 6.66269 29.3456 5.01199 29.8042C3.36129 30.2627 2.04687 30.5684 1.00757 34.7868C0.640748 36.1319 0.273926 37.538 0.273926 37.538C0.273926 37.538 4.04092 41.8747 17.5185 41.9981C17.6417 41.9998 18.3584 41.9998 18.4814 41.9981C31.9591 41.8748 35.7261 37.538 35.7261 37.538Z" fill="#F4F4F4"/>
<path d="M22.8013 26.1605C22.2602 24.782 22.1357 23.2969 22.1357 23.2969H13.8054C13.8054 23.2969 13.6809 24.782 13.1398 26.1605C13.5989 27.014 17.5731 30.6719 17.9517 31.0193H17.9894C18.368 30.6718 22.3422 27.014 22.8013 26.1605Z" fill="#E09F67"/>
<path d="M22.3031 24.3884C22.178 23.7505 22.1398 23.2969 22.1398 23.2969H13.8095C13.8095 23.2969 13.7626 23.8538 13.6023 24.6018C14.3611 25.226 16.2618 26.6212 18.0958 26.6212C19.9606 26.6212 21.6669 25.0503 22.3031 24.3884Z" fill="#AD7753"/>
<path d="M19.7576 30.9052C19.7576 30.9052 18.227 29.5684 17.9815 29.5684L17.9811 29.5689L17.9808 29.5684C17.7354 29.5684 16.2048 30.9052 16.2048 30.9052L15.9034 32.3454C15.9034 32.3454 16.9798 34.0827 17.9809 34.0827L17.9812 34.0823L17.9816 34.0827C18.9826 34.0827 20.059 32.3454 20.059 32.3454L19.7576 30.9052Z" fill="#2B3841"/>
<path d="M17.9809 33.1289H17.9801C17.3233 33.1291 16.939 33.2768 16.8558 33.6824C16.7888 34.0093 15.2223 39.6999 14.6154 41.9015C15.5292 41.9557 16.4955 41.9896 17.5187 41.999C17.6418 42.0008 18.3585 42.0008 18.4816 41.999C19.3903 41.991 20.2988 41.9618 21.2062 41.9114C20.6883 39.901 19.1747 34.0194 19.1057 33.6833C19.0225 33.2777 18.6376 33.1292 17.9809 33.1289Z" fill="#2B3841"/>
<path d="M13.1968 25.998L11.7343 27.7802L15.0309 33.495L17.9807 29.5516L13.1968 25.998ZM22.7856 25.998L24.248 27.7802L20.9515 33.495L17.9921 29.5516L22.7856 25.998Z" fill="white"/>
<path d="M17.8981 3.44186L17.8978 3.44141H17.8584L17.8582 3.44186C14.5415 3.46158 7.60795 5.9812 8.43862 14.3849C8.88661 19.203 12.3297 25.6632 17.8576 25.6945L17.8584 25.6953H17.8977L17.8984 25.6945C23.4264 25.6632 26.8695 19.203 27.3174 14.3849C28.1483 5.9812 21.2148 3.46158 17.8981 3.44186Z" fill="#E09F67"/>
<path d="M31.3448 35.1953C31.3346 36.2943 31.2287 39.1358 30.9879 40.1689C31.3427 40.0419 31.5682 39.9572 31.5682 39.9572C31.6345 39.1196 31.7995 37.1617 31.3448 35.1953ZM4.63064 35.1953C4.64082 36.2943 4.74674 39.1358 4.98746 40.1689C4.63275 40.0419 4.40724 39.9572 4.40724 39.9572C4.34094 39.1196 4.17578 37.1617 4.63064 35.1953Z" fill="white"/>
<path d="M8.39063 13.7576C8.39091 13.7623 8.96719 13.7576 8.96719 13.7576C8.96719 13.7576 9.12868 11.7385 9.50862 10.2712C9.88855 8.80394 10.7139 7.97859 12.3646 8.43712C14.0153 8.89565 18.216 9.74264 20.059 8.31038C21.902 6.87813 22.3032 6.4196 22.3032 6.4196C22.3032 6.4196 22.4522 8.6242 23.9195 10.0897C25.3868 11.5551 26.41 10.4574 26.7624 13.1141L27.3857 13.1156C27.3857 13.1156 27.5046 10.8215 27.7754 9.26247C28.0462 7.70348 27.729 3.77206 25.1334 4.2304C25.02 2.93478 22.3032 -0.0281352 17.5226 0.000201832C12.9688 0.0271633 9.84133 1.37579 7.93412 5.41084C6.02692 9.44588 8.39063 13.7576 8.39063 13.7576Z" fill="#513E36"/>
</svg>
