<svg width="65" height="77" viewBox="0 0 65 77" fill="none" xmlns="http://www.w3.org/2000/svg">
<path d="M41.7739 21.6667C45.9726 21.6667 49.4079 18.9292 49.4079 15.5833C49.4079 12.2375 45.9726 9.5 41.7739 9.5C37.5752 9.5 34.1399 12.2375 34.1399 15.5833C34.1399 18.9292 37.5752 21.6667 41.7739 21.6667ZM29.674 58.1667L31.8497 50.5625L39.8654 56.6458V71.8542C39.8654 73.5271 41.583 74.8958 43.6824 74.8958C45.7817 74.8958 47.4994 73.5271 47.4994 71.8542V54.6992C47.4994 53.0263 46.6596 51.4446 45.1328 50.2888L39.4837 46L41.7739 36.875C45.8581 40.6467 51.7744 43.3538 58.416 44.2054C60.7062 44.4792 62.7674 43.0192 62.7674 41.1638C62.7674 39.6733 61.3932 38.4263 59.5229 38.1829C53.7211 37.4225 48.9117 34.685 46.3543 31.0958L42.5373 26.2292C41.0105 24.4042 38.7203 23.1875 36.0484 23.1875C34.9033 23.1875 34.1399 23.4917 32.9948 23.4917L17.8032 28.6017C14.9786 29.575 13.1464 31.765 13.1464 34.2287V41.4375C13.1464 43.1104 14.8641 44.4792 16.9634 44.4792C19.0628 44.4792 20.7804 43.1104 20.7804 41.4375V34.1375L27.651 32.0083L21.5438 56.6458L6.58122 54.2125C4.52004 53.8779 2.49703 54.9425 2.07716 56.585V56.7067C1.65729 58.3492 2.99324 59.9613 5.05442 60.2958L20.7423 62.79C24.7883 63.4288 28.7579 61.3908 29.674 58.1667Z" fill="#FCD9D3"/>
<g filter="url(#filter0_d_4124_306371)">
<path fill-rule="evenodd" clip-rule="evenodd" d="M31.5387 10.5516L39.7573 13.7938C41.4418 14.4576 43.4183 14.4576 45.1027 13.7938L53.3213 10.5516C53.9952 10.2891 54.4225 9.74357 54.4225 9.14583C54.4225 8.54808 53.9952 8.00256 53.3213 7.74002L45.1027 4.4978C43.4183 3.83407 41.4418 3.83407 39.7573 4.4978L31.5387 7.74002C30.8648 8.00256 30.4375 8.54808 30.4375 9.14583C30.4375 9.74357 30.8648 10.2891 31.5387 10.5516Z" fill="#FCD9D3" stroke="#FCD9D3" stroke-width="2.41683" stroke-linecap="round" stroke-linejoin="round"/>
<path d="M54.4264 9.19531V13.0179" stroke="#FCD9D3" stroke-width="2.41683" stroke-linecap="round" stroke-linejoin="round"/>
</g>
<defs>
<filter id="filter0_d_4124_306371" x="27.2305" y="1.79297" width="30.4062" height="16.707" filterUnits="userSpaceOnUse" color-interpolation-filters="sRGB">
<feFlood flood-opacity="0" result="BackgroundImageFix"/>
<feColorMatrix in="SourceAlpha" type="matrix" values="0 0 0 0 0 0 0 0 0 0 0 0 0 0 0 0 0 0 127 0" result="hardAlpha"/>
<feOffset dy="1"/>
<feGaussianBlur stdDeviation="1"/>
<feComposite in2="hardAlpha" operator="out"/>
<feColorMatrix type="matrix" values="0 0 0 0 0 0 0 0 0 0 0 0 0 0 0 0 0 0 0.1 0"/>
<feBlend mode="normal" in2="BackgroundImageFix" result="effect1_dropShadow_4124_306371"/>
<feBlend mode="normal" in="SourceGraphic" in2="effect1_dropShadow_4124_306371" result="shape"/>
</filter>
</defs>
</svg>
